<?xml version="1.0" encoding="UTF-8" standalone="no"?>
<!-- Created with Inkscape (http://www.inkscape.org/) -->

<svg
   width="900"
   height="900"
   viewBox="0 0 238.12499 238.125"
   version="1.1"
   id="svg1"
   xml:space="preserve"
   inkscape:version="1.4 (e7c3feb100, 2024-10-09)"
   sodipodi:docname="nexura.svg"
   inkscape:export-filename="logoFondoNegro.png"
   inkscape:export-xdpi="96"
   inkscape:export-ydpi="96"
   xmlns:inkscape="http://www.inkscape.org/namespaces/inkscape"
   xmlns:sodipodi="http://sodipodi.sourceforge.net/DTD/sodipodi-0.dtd"
   xmlns="http://www.w3.org/2000/svg"
   xmlns:svg="http://www.w3.org/2000/svg"><sodipodi:namedview
     id="namedview1"
     pagecolor="#505050"
     bordercolor="#ffffff"
     borderopacity="1"
     inkscape:showpageshadow="0"
     inkscape:pageopacity="0"
     inkscape:pagecheckerboard="1"
     inkscape:deskcolor="#505050"
     inkscape:document-units="px"
     inkscape:zoom="0.28346768"
     inkscape:cx="-308.67717"
     inkscape:cy="603.24338"
     inkscape:window-width="1920"
     inkscape:window-height="1124"
     inkscape:window-x="0"
     inkscape:window-y="0"
     inkscape:window-maximized="1"
     inkscape:current-layer="layer1"
     showguides="false" /><defs
     id="defs1"><marker
       style="overflow:visible"
       id="marker10"
       refX="0"
       refY="0"
       orient="auto"
       inkscape:stockid="Dot"
       markerWidth="0.2"
       markerHeight="0.2"
       viewBox="0 0 1 1"
       inkscape:isstock="true"
       inkscape:collect="always"
       preserveAspectRatio="xMidYMid"><path
         transform="scale(0.5)"
         style="fill:context-stroke;fill-rule:evenodd;stroke:none"
         d="M 5,0 C 5,2.76 2.76,5 0,5 -2.76,5 -5,2.76 -5,0 c 0,-2.76 2.3,-5 5,-5 2.76,0 5,2.24 5,5 z"
         sodipodi:nodetypes="sssss"
         id="path10" /></marker><marker
       style="overflow:visible"
       id="Dot"
       refX="0"
       refY="0"
       orient="auto"
       inkscape:stockid="Dot"
       markerWidth="0.2"
       markerHeight="0.2"
       viewBox="0 0 1 1"
       inkscape:isstock="true"
       inkscape:collect="always"
       preserveAspectRatio="xMidYMid"><path
         transform="scale(0.5)"
         style="fill:context-stroke;fill-rule:evenodd;stroke:none"
         d="M 5,0 C 5,2.76 2.76,5 0,5 -2.76,5 -5,2.76 -5,0 c 0,-2.76 2.3,-5 5,-5 2.76,0 5,2.24 5,5 z"
         sodipodi:nodetypes="sssss"
         id="path17" /></marker><marker
       style="overflow:visible"
       id="marker9"
       refX="0"
       refY="0"
       orient="auto"
       inkscape:stockid="Dot"
       markerWidth="0.2"
       markerHeight="0.2"
       viewBox="0 0 1 1"
       inkscape:isstock="true"
       inkscape:collect="always"
       preserveAspectRatio="xMidYMid"><path
         transform="scale(0.5)"
         style="fill:context-stroke;fill-rule:evenodd;stroke:none"
         d="M 5,0 C 5,2.76 2.76,5 0,5 -2.76,5 -5,2.76 -5,0 c 0,-2.76 2.3,-5 5,-5 2.76,0 5,2.24 5,5 z"
         sodipodi:nodetypes="sssss"
         id="path9" /></marker><inkscape:path-effect
       effect="powerclip"
       message=""
       id="path-effect22111"
       is_visible="true"
       lpeversion="1"
       inverse="true"
       flatten="false"
       hide_clip="false" /><filter
       id="mask-powermask-path-effect22110_inverse"
       inkscape:label="filtermask-powermask-path-effect22110"
       style="color-interpolation-filters:sRGB"
       height="100"
       width="100"
       x="-50"
       y="-50"><feColorMatrix
         id="mask-powermask-path-effect22110_primitive1"
         values="1"
         type="saturate"
         result="fbSourceGraphic" /><feColorMatrix
         id="mask-powermask-path-effect22110_primitive2"
         values="-1 0 0 0 1 0 -1 0 0 1 0 0 -1 0 1 0 0 0 1 0 "
         in="fbSourceGraphic" /></filter><clipPath
       clipPathUnits="userSpaceOnUse"
       id="clipPath22111"><path
         style="display:block;fill:#ccff00;fill-opacity:1;stroke:none;stroke-width:10.7155;stroke-linecap:round;stroke-linejoin:round;stroke-miterlimit:6.6;stroke-opacity:1"
         id="path22111"
         inkscape:transform-center-x="8.1911751"
         inkscape:transform-center-y="18.33957"
         transform="matrix(0.99996798,-0.00800234,0.00450492,0.99998985,0,0)"
         sodipodi:type="arc"
         sodipodi:cx="46.422909"
         sodipodi:cy="28.303036"
         sodipodi:rx="13.587809"
         sodipodi:ry="34.978111"
         sodipodi:start="0"
         sodipodi:end="3.1467592"
         sodipodi:arc-type="arc"
         sodipodi:open="true" /></clipPath><clipPath
       clipPathUnits="userSpaceOnUse"
       id="clipPath22111-3"><path
         style="display:none;fill:#ccff00;fill-opacity:1;stroke:none;stroke-width:10.7155;stroke-linecap:round;stroke-linejoin:round;stroke-miterlimit:6.6;stroke-opacity:1"
         id="path22111-7"
         inkscape:transform-center-x="8.1911751"
         inkscape:transform-center-y="18.33957"
         transform="matrix(0.99996798,-0.00800234,0.00450492,0.99998985,0,0)"
         sodipodi:type="arc"
         sodipodi:cx="46.422909"
         sodipodi:cy="28.303036"
         sodipodi:rx="13.587809"
         sodipodi:ry="34.978111"
         sodipodi:start="0"
         sodipodi:end="3.1467592"
         sodipodi:arc-type="arc"
         d="M 60.010717,28.303036 A 13.587809,34.978111 0 0 1 53.196537,58.625043 13.587809,34.978111 0 0 1 39.588514,58.53455 13.587809,34.978111 0 0 1 32.835282,28.122321"
         sodipodi:open="true" /><path
         id="lpe_path-effect22111-5"
         style="fill:#ccff00;fill-opacity:1;stroke:none;stroke-width:10.7155;stroke-linecap:round;stroke-linejoin:round;stroke-miterlimit:6.6;stroke-opacity:1"
         class="powerclip"
         d="M 2.9160387,26.927178 H 89.894893 V 110.05446 H 2.9160387 Z m 29.9192433,1.195143 a 13.587809,34.978111 0 0 0 6.753232,30.412229 13.587809,34.978111 0 0 0 13.608023,0.09049 13.587809,34.978111 0 0 0 6.81418,-30.322007" /></clipPath><inkscape:path-effect
       effect="powerclip"
       message=""
       id="path-effect22111-9"
       is_visible="true"
       lpeversion="1"
       inverse="true"
       flatten="false"
       hide_clip="false" /><clipPath
       clipPathUnits="userSpaceOnUse"
       id="clipath_lpe_path-effect22111-9"><path
         style="display:block;fill:#ccff00;fill-opacity:1;stroke:none;stroke-width:10.7155;stroke-linecap:round;stroke-linejoin:round;stroke-miterlimit:6.6;stroke-opacity:1"
         id="path22112"
         inkscape:transform-center-x="8.1911751"
         inkscape:transform-center-y="18.33957"
         transform="matrix(0.99996798,-0.00800234,0.00450492,0.99998985,0,0)"
         sodipodi:type="arc"
         sodipodi:cx="46.422909"
         sodipodi:cy="28.303036"
         sodipodi:rx="13.587809"
         sodipodi:ry="34.978111"
         sodipodi:start="0"
         sodipodi:end="3.1467592"
         sodipodi:arc-type="arc"
         sodipodi:open="true"
         d="M 60.010717,28.303036 A 13.587809,34.978111 0 0 1 53.196537,58.625043 13.587809,34.978111 0 0 1 39.588514,58.53455 13.587809,34.978111 0 0 1 32.835282,28.122321" /></clipPath><clipPath
       clipPathUnits="userSpaceOnUse"
       id="clipPath22113"><path
         style="fill:#d40000;stroke-width:0.976324"
         d="M 8.0914646,104.88546 C 7.9950038,104.789 -26.40646,102.82609 4.2122415,88.606077 9.0955947,86.338139 -11.322119,74.122902 5.3394841,70.228396 L 4.427697,65.508471 C 5.4575429,59.266084 5.9050118,52.527537 10.013898,46.542473 12.405765,43.058447 21.826681,35.118884 26.4155,32.610975 c 4.67504,-2.555032 6.699988,5.687333 7.590235,8.105143 0.958115,2.602132 -0.06722,1.533313 0.296021,2.035622 l -1.127508,0.20946 c -0.24939,0.04633 -1.394571,0.855288 -2.695182,1.504271 -9.011585,4.496615 -15.914742,13.837557 -17.97208,24.318767 l -0.553117,2.817901 -0.09519,14.788764 -0.09509,14.788757 h 5.438308 5.438319 l 0.002,-12.980524 c 0.0029,-16.810442 0.467893,-20.255137 3.388751,-25.095616 2.871818,-4.759205 9.796356,-12.565895 10.241736,-10.438142 0.08182,0.390708 1.763082,2.624221 1.583867,3.179157 l -0.500587,1.550059 -0.550471,0.37963 c -3.746945,2.584017 -4.208844,7.541775 -6.205377,11.568163 -1.661771,3.351263 0.930397,0.215596 -0.9066,18.332808 l -1.853874,18.283655 -9.701051,1.79041 c -4.971326,0.9175 -12.8494128,-0.81836 -12.9458931,-0.91489 z m 58.1185654,-0.003 c -0.0947,-0.0947 -5.506468,-7.651113 -3.645209,-16.420725 L 64.158982,74.280138 62.859505,72.214294 C 60.013189,67.689366 60.979541,60.746789 57.061231,58.507729 56.31533,58.081497 55.705059,57.562847 55.705059,57.355172 c 0,-0.639639 -0.297385,-2.911804 0.09945,-3.062413 l 0.874675,-1.580998 1.598189,0.805163 c 5.947266,2.996216 9.286843,9.362037 11.071475,15.889512 l 0.670939,2.45403 0.09099,14.659604 0.09099,14.65961 h 5.428936 l 4.341943,-0.73084 -0.91425,-14.45276 -0.954517,-9.255673 -4.128352,-5.05641 C 71.493487,68.64399 74.893083,67.294581 73.107377,63.521373 70.293182,57.574961 67.932153,47.083446 62.173485,44.397383 61.102126,43.897661 60.03478,43.327151 59.801604,43.129584 l -0.423958,-0.359214 0.0013,-1.853073 c 0.0016,-2.279548 1.290974,-2.664478 2.957578,-1.92798 6.967698,0.222337 21.806402,0.660002 21.315808,9.018762 -0.04226,0.720003 -0.416475,6.5464 -0.259355,6.759513 1.150256,1.560187 0.367995,10.629538 1.106213,15.181488 l 0.39377,2.428024 9.77e-4,16.338678 0.725632,17.678548 -10.43656,2.33502 c -4.97021,1.11201 -12.749987,-3.75239 -12.8447,-3.8471 z M 39.941198,57.636104 c -0.13856,-0.364438 -0.251921,-0.770827 -0.251921,-0.903088 0,-0.13226 -0.231174,-0.909337 -0.513722,-1.726837 -0.648348,-1.875892 -2.283602,-7.907134 -4.255103,-15.693908 -0.215826,-0.852454 -0.557178,-2.073012 -0.758554,-2.71235 -0.201377,-0.63934 -0.443915,-1.538668 -0.53897,-1.998506 l -0.172839,-0.83607 0.600986,-0.228749 c 4.850426,-1.846195 15.874967,-2.159282 22.945573,-0.651635 2.547307,0.543156 3.32696,1.963491 2.001971,3.647089 -0.138345,0.175786 -0.184056,0.495455 -0.101586,0.710378 0.0825,0.214923 0.04198,0.390768 -0.08992,0.390768 -0.131911,0 -0.354913,0.435913 -0.495543,0.968696 -0.140639,0.532785 -0.623812,2.363621 -1.073722,4.068526 -0.449899,1.704905 -1.045916,4.029777 -1.324471,5.16638 -0.278565,1.136604 -0.782826,2.996501 -1.120585,4.133105 -0.337759,1.136603 -0.872238,2.978889 -1.187718,4.09397 -0.684286,2.418604 -0.665804,2.408867 -3.564665,1.878514 -2.829045,-0.517581 -3.943939,-0.522737 -6.734692,-0.03115 -2.907922,0.512226 -3.070236,0.498953 -3.364549,-0.275135 z"
         id="path22113"
         sodipodi:nodetypes="csccssscscsccccccscscssscscccscsssscsscccccccsssscscssscccscccssssccssscssssscsscc"
         clip-path="url(#clipath_lpe_path-effect22111-9)"
         transform="matrix(1.0246241,0,0,1.0159547,51.875387,-144.85161)"
         inkscape:original-d="M 8.0914646,104.88546 C 7.9950038,104.789 -26.40646,102.82609 4.2122415,88.606077 9.0955947,86.338139 -11.322119,74.122902 5.3394841,70.228396 L 4.427697,65.508471 C 5.4575429,59.266084 5.9050118,52.527537 10.013898,46.542473 12.405765,43.058447 21.826681,35.118884 26.4155,32.610975 c 4.67504,-2.555032 6.699988,5.687333 7.590235,8.105143 0.958115,2.602132 -0.06722,1.533313 0.296021,2.035622 l -1.127508,0.20946 c -0.24939,0.04633 -1.394571,0.855288 -2.695182,1.504271 -9.011585,4.496615 -15.914742,13.837557 -17.97208,24.318767 l -0.553117,2.817901 -0.09519,14.788764 -0.09509,14.788757 h 5.438308 5.438319 l 0.002,-12.980524 c 0.0029,-16.810442 0.467893,-20.255137 3.388751,-25.095616 2.871818,-4.759205 9.796356,-12.565895 10.241736,-10.438142 0.08182,0.390708 1.763082,2.624221 1.583867,3.179157 l -0.500587,1.550059 -0.550471,0.37963 c -3.746945,2.584017 -4.208844,7.541775 -6.205377,11.568163 -1.661771,3.351263 0.930397,0.215596 -0.9066,18.332808 l -1.853874,18.283655 -9.701051,1.79041 c -4.971326,0.9175 -12.8494128,-0.81836 -12.9458931,-0.91489 z m 58.1185654,-0.003 c -0.0947,-0.0947 -5.506468,-7.651113 -3.645209,-16.420725 L 64.158982,74.280138 62.859505,72.214294 C 60.013189,67.689366 60.979541,60.746789 57.061231,58.507729 56.31533,58.081497 55.705059,57.562847 55.705059,57.355172 c 0,-0.639639 -0.297385,-2.911804 0.09945,-3.062413 l 0.874675,-1.580998 1.598189,0.805163 c 5.947266,2.996216 9.286843,9.362037 11.071475,15.889512 l 0.670939,2.45403 0.09099,14.659604 0.09099,14.65961 h 5.428936 l 4.341943,-0.73084 -0.91425,-14.45276 -0.954517,-9.255673 -4.128352,-5.05641 C 71.493487,68.64399 74.893083,67.294581 73.107377,63.521373 70.293182,57.574961 67.932153,47.083446 62.173485,44.397383 61.102126,43.897661 60.03478,43.327151 59.801604,43.129584 l -0.423958,-0.359214 0.0013,-1.853073 c 0.0016,-2.279548 1.290974,-2.664478 2.957578,-1.92798 6.967698,0.222337 21.806402,0.660002 21.315808,9.018762 -0.04226,0.720003 -0.416475,6.5464 -0.259355,6.759513 1.150256,1.560187 0.367995,10.629538 1.106213,15.181488 l 0.39377,2.428024 9.77e-4,16.338678 0.725632,17.678548 -10.43656,2.33502 c -4.97021,1.11201 -12.749987,-3.75239 -12.8447,-3.8471 z M 39.941198,57.636104 c -0.13856,-0.364438 -0.251921,-0.770827 -0.251921,-0.903088 0,-0.13226 -0.231174,-0.909337 -0.513722,-1.726837 -0.648348,-1.875892 -2.283602,-7.907134 -4.255103,-15.693908 -0.215826,-0.852454 -0.557178,-2.073012 -0.758554,-2.71235 -0.201377,-0.63934 -0.443915,-1.538668 -0.53897,-1.998506 l -0.172839,-0.83607 0.600986,-0.228749 c 4.850426,-1.846195 15.874967,-2.159282 22.945573,-0.651635 2.547307,0.543156 3.32696,1.963491 2.001971,3.647089 -0.138345,0.175786 -0.184056,0.495455 -0.101586,0.710378 0.0825,0.214923 0.04198,0.390768 -0.08992,0.390768 -0.131911,0 -0.354913,0.435913 -0.495543,0.968696 -0.140639,0.532785 -0.623812,2.363621 -1.073722,4.068526 -0.449899,1.704905 -1.045916,4.029777 -1.324471,5.16638 -0.278565,1.136604 -0.782826,2.996501 -1.120585,4.133105 -0.337759,1.136603 -0.872238,2.978889 -1.187718,4.09397 -0.684286,2.418604 -0.665804,2.408867 -3.564665,1.878514 -2.829045,-0.517581 -3.943939,-0.522737 -6.734692,-0.03115 -2.907922,0.512226 -3.070236,0.498953 -3.364549,-0.275135 z"
         inkscape:path-effect="#path-effect22111-9" /></clipPath><clipPath
       clipPathUnits="userSpaceOnUse"
       id="clipPath22113-7"><path
         style="fill:#d40000;stroke-width:0.976324"
         d="M 8.0914646,104.88546 C 7.9950038,104.789 -26.40646,102.82609 4.2122415,88.606077 9.0955947,86.338139 -11.322119,74.122902 5.3394841,70.228396 L 4.427697,65.508471 C 5.4575429,59.266084 5.9050118,52.527537 10.013898,46.542473 12.405765,43.058447 21.826681,35.118884 26.4155,32.610975 c 4.67504,-2.555032 6.699988,5.687333 7.590235,8.105143 0.958115,2.602132 -0.06722,1.533313 0.296021,2.035622 l -1.127508,0.20946 c -0.24939,0.04633 -1.394571,0.855288 -2.695182,1.504271 -9.011585,4.496615 -15.914742,13.837557 -17.97208,24.318767 l -0.553117,2.817901 -0.09519,14.788764 -0.09509,14.788757 h 5.438308 5.438319 l 0.002,-12.980524 c 0.0029,-16.810442 0.467893,-20.255137 3.388751,-25.095616 2.871818,-4.759205 9.796356,-12.565895 10.241736,-10.438142 0.08182,0.390708 1.763082,2.624221 1.583867,3.179157 l -0.500587,1.550059 -0.550471,0.37963 c -3.746945,2.584017 -4.208844,7.541775 -6.205377,11.568163 -1.661771,3.351263 0.930397,0.215596 -0.9066,18.332808 l -1.853874,18.283655 -9.701051,1.79041 c -4.971326,0.9175 -12.8494128,-0.81836 -12.9458931,-0.91489 z m 58.1185654,-0.003 c -0.0947,-0.0947 -5.506468,-7.651113 -3.645209,-16.420725 L 64.158982,74.280138 62.859505,72.214294 C 60.013189,67.689366 60.979541,60.746789 57.061231,58.507729 56.31533,58.081497 55.705059,57.562847 55.705059,57.355172 c 0,-0.639639 -0.297385,-2.911804 0.09945,-3.062413 l 0.874675,-1.580998 1.598189,0.805163 c 5.947266,2.996216 9.286843,9.362037 11.071475,15.889512 l 0.670939,2.45403 0.09099,14.659604 0.09099,14.65961 h 5.428936 l 4.341943,-0.73084 -0.91425,-14.45276 -0.954517,-9.255673 -4.128352,-5.05641 C 71.493487,68.64399 74.893083,67.294581 73.107377,63.521373 70.293182,57.574961 67.932153,47.083446 62.173485,44.397383 61.102126,43.897661 60.03478,43.327151 59.801604,43.129584 l -0.423958,-0.359214 0.0013,-1.853073 c 0.0016,-2.279548 1.290974,-2.664478 2.957578,-1.92798 6.967698,0.222337 21.806402,0.660002 21.315808,9.018762 -0.04226,0.720003 -0.416475,6.5464 -0.259355,6.759513 1.150256,1.560187 0.367995,10.629538 1.106213,15.181488 l 0.39377,2.428024 9.77e-4,16.338678 0.725632,17.678548 -10.43656,2.33502 c -4.97021,1.11201 -12.749987,-3.75239 -12.8447,-3.8471 z M 39.941198,57.636104 c -0.13856,-0.364438 -0.251921,-0.770827 -0.251921,-0.903088 0,-0.13226 -0.231174,-0.909337 -0.513722,-1.726837 -0.648348,-1.875892 -2.283602,-7.907134 -4.255103,-15.693908 -0.215826,-0.852454 -0.557178,-2.073012 -0.758554,-2.71235 -0.201377,-0.63934 -0.443915,-1.538668 -0.53897,-1.998506 l -0.172839,-0.83607 0.600986,-0.228749 c 4.850426,-1.846195 15.874967,-2.159282 22.945573,-0.651635 2.547307,0.543156 3.32696,1.963491 2.001971,3.647089 -0.138345,0.175786 -0.184056,0.495455 -0.101586,0.710378 0.0825,0.214923 0.04198,0.390768 -0.08992,0.390768 -0.131911,0 -0.354913,0.435913 -0.495543,0.968696 -0.140639,0.532785 -0.623812,2.363621 -1.073722,4.068526 -0.449899,1.704905 -1.045916,4.029777 -1.324471,5.16638 -0.278565,1.136604 -0.782826,2.996501 -1.120585,4.133105 -0.337759,1.136603 -0.872238,2.978889 -1.187718,4.09397 -0.684286,2.418604 -0.665804,2.408867 -3.564665,1.878514 -2.829045,-0.517581 -3.943939,-0.522737 -6.734692,-0.03115 -2.907922,0.512226 -3.070236,0.498953 -3.364549,-0.275135 z"
         id="path22113-3"
         sodipodi:nodetypes="csccssscscsccccccscscssscscccscsssscsscccccccsssscscssscccscccssssccssscssssscsscc"
         clip-path="url(#clipath_lpe_path-effect22111-9-6)"
         transform="matrix(1.0246241,0,0,1.0159547,51.875387,-144.85161)"
         inkscape:path-effect="#path-effect22111-9-2" /></clipPath><clipPath
       clipPathUnits="userSpaceOnUse"
       id="clipath_lpe_path-effect22111-9-6"><path
         style="display:none;fill:#ccff00;fill-opacity:1;stroke:none;stroke-width:10.7155;stroke-linecap:round;stroke-linejoin:round;stroke-miterlimit:6.6;stroke-opacity:1"
         id="path22112-1"
         inkscape:transform-center-x="8.1911751"
         inkscape:transform-center-y="18.33957"
         transform="matrix(0.99996798,-0.00800234,0.00450492,0.99998985,0,0)"
         sodipodi:type="arc"
         sodipodi:cx="46.422909"
         sodipodi:cy="28.303036"
         sodipodi:rx="13.587809"
         sodipodi:ry="34.978111"
         sodipodi:start="0"
         sodipodi:end="3.1467592"
         sodipodi:arc-type="arc"
         sodipodi:open="true"
         d="M 60.010717,28.303036 A 13.587809,34.978111 0 0 1 53.196537,58.625043 13.587809,34.978111 0 0 1 39.588514,58.53455 13.587809,34.978111 0 0 1 32.835282,28.122321" /><path
         style="display:block;fill:#ccff00;fill-opacity:1;stroke:none;stroke-width:10.7155;stroke-linecap:round;stroke-linejoin:round;stroke-miterlimit:6.6;stroke-opacity:1"
         class="powerclip"
         id="lpe_path-effect22111-9-2"
         d="M -13.477316,26.927178 H 90.619569 V 113.8945 H -13.477316 Z m 46.312598,1.195143 a 13.587809,34.978111 0 0 0 6.753232,30.412229 13.587809,34.978111 0 0 0 13.608023,0.09049 13.587809,34.978111 0 0 0 6.81418,-30.322007" /></clipPath><inkscape:path-effect
       effect="powerclip"
       message=""
       id="path-effect22111-9-2"
       is_visible="true"
       lpeversion="1"
       inverse="true"
       flatten="false"
       hide_clip="false" /><clipPath
       clipPathUnits="userSpaceOnUse"
       id="clipPath22113-4"><path
         style="fill:#d40000;stroke-width:0.976324"
         d="M 8.0914646,104.88546 C 7.9950038,104.789 -26.40646,102.82609 4.2122415,88.606077 9.0955947,86.338139 -11.322119,74.122902 5.3394841,70.228396 L 4.427697,65.508471 C 5.4575429,59.266084 5.9050118,52.527537 10.013898,46.542473 12.405765,43.058447 21.826681,35.118884 26.4155,32.610975 c 4.67504,-2.555032 6.699988,5.687333 7.590235,8.105143 0.958115,2.602132 -0.06722,1.533313 0.296021,2.035622 l -1.127508,0.20946 c -0.24939,0.04633 -1.394571,0.855288 -2.695182,1.504271 -9.011585,4.496615 -15.914742,13.837557 -17.97208,24.318767 l -0.553117,2.817901 -0.09519,14.788764 -0.09509,14.788757 h 5.438308 5.438319 l 0.002,-12.980524 c 0.0029,-16.810442 0.467893,-20.255137 3.388751,-25.095616 2.871818,-4.759205 9.796356,-12.565895 10.241736,-10.438142 0.08182,0.390708 1.763082,2.624221 1.583867,3.179157 l -0.500587,1.550059 -0.550471,0.37963 c -3.746945,2.584017 -4.208844,7.541775 -6.205377,11.568163 -1.661771,3.351263 0.930397,0.215596 -0.9066,18.332808 l -1.853874,18.283655 -9.701051,1.79041 c -4.971326,0.9175 -12.8494128,-0.81836 -12.9458931,-0.91489 z m 58.1185654,-0.003 c -0.0947,-0.0947 -5.506468,-7.651113 -3.645209,-16.420725 L 64.158982,74.280138 62.859505,72.214294 C 60.013189,67.689366 60.979541,60.746789 57.061231,58.507729 56.31533,58.081497 55.705059,57.562847 55.705059,57.355172 c 0,-0.639639 -0.297385,-2.911804 0.09945,-3.062413 l 0.874675,-1.580998 1.598189,0.805163 c 5.947266,2.996216 9.286843,9.362037 11.071475,15.889512 l 0.670939,2.45403 0.09099,14.659604 0.09099,14.65961 h 5.428936 l 4.341943,-0.73084 -0.91425,-14.45276 -0.954517,-9.255673 -4.128352,-5.05641 C 71.493487,68.64399 74.893083,67.294581 73.107377,63.521373 70.293182,57.574961 67.932153,47.083446 62.173485,44.397383 61.102126,43.897661 60.03478,43.327151 59.801604,43.129584 l -0.423958,-0.359214 0.0013,-1.853073 c 0.0016,-2.279548 1.290974,-2.664478 2.957578,-1.92798 6.967698,0.222337 21.806402,0.660002 21.315808,9.018762 -0.04226,0.720003 -0.416475,6.5464 -0.259355,6.759513 1.150256,1.560187 0.367995,10.629538 1.106213,15.181488 l 0.39377,2.428024 9.77e-4,16.338678 0.725632,17.678548 -10.43656,2.33502 c -4.97021,1.11201 -12.749987,-3.75239 -12.8447,-3.8471 z M 39.941198,57.636104 c -0.13856,-0.364438 -0.251921,-0.770827 -0.251921,-0.903088 0,-0.13226 -0.231174,-0.909337 -0.513722,-1.726837 -0.648348,-1.875892 -2.283602,-7.907134 -4.255103,-15.693908 -0.215826,-0.852454 -0.557178,-2.073012 -0.758554,-2.71235 -0.201377,-0.63934 -0.443915,-1.538668 -0.53897,-1.998506 l -0.172839,-0.83607 0.600986,-0.228749 c 4.850426,-1.846195 15.874967,-2.159282 22.945573,-0.651635 2.547307,0.543156 3.32696,1.963491 2.001971,3.647089 -0.138345,0.175786 -0.184056,0.495455 -0.101586,0.710378 0.0825,0.214923 0.04198,0.390768 -0.08992,0.390768 -0.131911,0 -0.354913,0.435913 -0.495543,0.968696 -0.140639,0.532785 -0.623812,2.363621 -1.073722,4.068526 -0.449899,1.704905 -1.045916,4.029777 -1.324471,5.16638 -0.278565,1.136604 -0.782826,2.996501 -1.120585,4.133105 -0.337759,1.136603 -0.872238,2.978889 -1.187718,4.09397 -0.684286,2.418604 -0.665804,2.408867 -3.564665,1.878514 -2.829045,-0.517581 -3.943939,-0.522737 -6.734692,-0.03115 -2.907922,0.512226 -3.070236,0.498953 -3.364549,-0.275135 z"
         id="path22113-7"
         sodipodi:nodetypes="csccssscscsccccccscscssscscccscsssscsscccccccsssscscssscccscccssssccssscssssscsscc"
         clip-path="url(#clipath_lpe_path-effect22111-9-8)"
         transform="matrix(1.0246241,0,0,1.0159547,51.875387,-144.85161)"
         inkscape:path-effect="#path-effect22111-9-5" /></clipPath><clipPath
       clipPathUnits="userSpaceOnUse"
       id="clipath_lpe_path-effect22111-9-8"><path
         style="display:block;fill:#ccff00;fill-opacity:1;stroke:none;stroke-width:10.7155;stroke-linecap:round;stroke-linejoin:round;stroke-miterlimit:6.6;stroke-opacity:1"
         id="path22112-4"
         inkscape:transform-center-x="8.1911751"
         inkscape:transform-center-y="18.33957"
         transform="matrix(0.99996798,-0.00800234,0.00450492,0.99998985,0,0)"
         sodipodi:type="arc"
         sodipodi:cx="46.422909"
         sodipodi:cy="28.303036"
         sodipodi:rx="13.587809"
         sodipodi:ry="34.978111"
         sodipodi:start="0"
         sodipodi:end="3.1467592"
         sodipodi:arc-type="arc"
         sodipodi:open="true"
         d="M 60.010717,28.303036 A 13.587809,34.978111 0 0 1 53.196537,58.625043 13.587809,34.978111 0 0 1 39.588514,58.53455 13.587809,34.978111 0 0 1 32.835282,28.122321" /></clipPath><inkscape:path-effect
       effect="powerclip"
       message=""
       id="path-effect22111-9-5"
       is_visible="true"
       lpeversion="1"
       inverse="true"
       flatten="false"
       hide_clip="false" /><clipPath
       clipPathUnits="userSpaceOnUse"
       id="clipPath22113-4-0"><path
         style="fill:#d40000;stroke-width:0.976324"
         d="M 8.0914646,104.88546 C 7.9950038,104.789 -26.40646,102.82609 4.2122415,88.606077 9.0955947,86.338139 -11.322119,74.122902 5.3394841,70.228396 L 4.427697,65.508471 C 5.4575429,59.266084 5.9050118,52.527537 10.013898,46.542473 12.405765,43.058447 21.826681,35.118884 26.4155,32.610975 c 4.67504,-2.555032 6.699988,5.687333 7.590235,8.105143 0.958115,2.602132 -0.06722,1.533313 0.296021,2.035622 l -1.127508,0.20946 c -0.24939,0.04633 -1.394571,0.855288 -2.695182,1.504271 -9.011585,4.496615 -15.914742,13.837557 -17.97208,24.318767 l -0.553117,2.817901 -0.09519,14.788764 -0.09509,14.788757 h 5.438308 5.438319 l 0.002,-12.980524 c 0.0029,-16.810442 0.467893,-20.255137 3.388751,-25.095616 2.871818,-4.759205 9.796356,-12.565895 10.241736,-10.438142 0.08182,0.390708 1.763082,2.624221 1.583867,3.179157 l -0.500587,1.550059 -0.550471,0.37963 c -3.746945,2.584017 -4.208844,7.541775 -6.205377,11.568163 -1.661771,3.351263 0.930397,0.215596 -0.9066,18.332808 l -1.853874,18.283655 -9.701051,1.79041 c -4.971326,0.9175 -12.8494128,-0.81836 -12.9458931,-0.91489 z m 58.1185654,-0.003 c -0.0947,-0.0947 -5.506468,-7.651113 -3.645209,-16.420725 L 64.158982,74.280138 62.859505,72.214294 C 60.013189,67.689366 60.979541,60.746789 57.061231,58.507729 56.31533,58.081497 55.705059,57.562847 55.705059,57.355172 c 0,-0.639639 -0.297385,-2.911804 0.09945,-3.062413 l 0.874675,-1.580998 1.598189,0.805163 c 5.947266,2.996216 9.286843,9.362037 11.071475,15.889512 l 0.670939,2.45403 0.09099,14.659604 0.09099,14.65961 h 5.428936 l 4.341943,-0.73084 -0.91425,-14.45276 -0.954517,-9.255673 -4.128352,-5.05641 C 71.493487,68.64399 74.893083,67.294581 73.107377,63.521373 70.293182,57.574961 67.932153,47.083446 62.173485,44.397383 61.102126,43.897661 60.03478,43.327151 59.801604,43.129584 l -0.423958,-0.359214 0.0013,-1.853073 c 0.0016,-2.279548 1.290974,-2.664478 2.957578,-1.92798 6.967698,0.222337 21.806402,0.660002 21.315808,9.018762 -0.04226,0.720003 -0.416475,6.5464 -0.259355,6.759513 1.150256,1.560187 0.367995,10.629538 1.106213,15.181488 l 0.39377,2.428024 9.77e-4,16.338678 0.725632,17.678548 -10.43656,2.33502 c -4.97021,1.11201 -12.749987,-3.75239 -12.8447,-3.8471 z M 39.941198,57.636104 c -0.13856,-0.364438 -0.251921,-0.770827 -0.251921,-0.903088 0,-0.13226 -0.231174,-0.909337 -0.513722,-1.726837 -0.648348,-1.875892 -2.283602,-7.907134 -4.255103,-15.693908 -0.215826,-0.852454 -0.557178,-2.073012 -0.758554,-2.71235 -0.201377,-0.63934 -0.443915,-1.538668 -0.53897,-1.998506 l -0.172839,-0.83607 0.600986,-0.228749 c 4.850426,-1.846195 15.874967,-2.159282 22.945573,-0.651635 2.547307,0.543156 3.32696,1.963491 2.001971,3.647089 -0.138345,0.175786 -0.184056,0.495455 -0.101586,0.710378 0.0825,0.214923 0.04198,0.390768 -0.08992,0.390768 -0.131911,0 -0.354913,0.435913 -0.495543,0.968696 -0.140639,0.532785 -0.623812,2.363621 -1.073722,4.068526 -0.449899,1.704905 -1.045916,4.029777 -1.324471,5.16638 -0.278565,1.136604 -0.782826,2.996501 -1.120585,4.133105 -0.337759,1.136603 -0.872238,2.978889 -1.187718,4.09397 -0.684286,2.418604 -0.665804,2.408867 -3.564665,1.878514 -2.829045,-0.517581 -3.943939,-0.522737 -6.734692,-0.03115 -2.907922,0.512226 -3.070236,0.498953 -3.364549,-0.275135 z"
         id="path22113-7-6"
         sodipodi:nodetypes="csccssscscsccccccscscssscscccscsssscsscccccccsssscscssscccscccssssccssscssssscsscc"
         clip-path="url(#clipath_lpe_path-effect22111-9-8-3)"
         transform="matrix(1.0246241,0,0,1.0159547,51.875387,-144.85161)"
         inkscape:path-effect="#path-effect22111-9-5-0" /></clipPath><clipPath
       clipPathUnits="userSpaceOnUse"
       id="clipath_lpe_path-effect22111-9-8-3"><path
         style="display:block;fill:#ccff00;fill-opacity:1;stroke:none;stroke-width:10.7155;stroke-linecap:round;stroke-linejoin:round;stroke-miterlimit:6.6;stroke-opacity:1"
         id="path22112-4-2"
         inkscape:transform-center-x="8.1911751"
         inkscape:transform-center-y="18.33957"
         transform="matrix(0.99996798,-0.00800234,0.00450492,0.99998985,0,0)"
         sodipodi:type="arc"
         sodipodi:cx="46.422909"
         sodipodi:cy="28.303036"
         sodipodi:rx="13.587809"
         sodipodi:ry="34.978111"
         sodipodi:start="0"
         sodipodi:end="3.1467592"
         sodipodi:arc-type="arc"
         sodipodi:open="true"
         d="M 60.010717,28.303036 A 13.587809,34.978111 0 0 1 53.196537,58.625043 13.587809,34.978111 0 0 1 39.588514,58.53455 13.587809,34.978111 0 0 1 32.835282,28.122321" /></clipPath><inkscape:path-effect
       effect="powerclip"
       message=""
       id="path-effect22111-9-5-0"
       is_visible="true"
       lpeversion="1"
       inverse="true"
       flatten="false"
       hide_clip="false" /><clipPath
       clipPathUnits="userSpaceOnUse"
       id="clipPath22111-6"><path
         style="display:none;fill:#ccff00;fill-opacity:1;stroke:none;stroke-width:10.7155;stroke-linecap:round;stroke-linejoin:round;stroke-miterlimit:6.6;stroke-opacity:1"
         id="path22111-1"
         inkscape:transform-center-x="8.1911751"
         inkscape:transform-center-y="18.33957"
         transform="matrix(0.99996798,-0.00800234,0.00450492,0.99998985,0,0)"
         sodipodi:type="arc"
         sodipodi:cx="46.422909"
         sodipodi:cy="28.303036"
         sodipodi:rx="13.587809"
         sodipodi:ry="34.978111"
         sodipodi:start="0"
         sodipodi:end="3.1467592"
         sodipodi:arc-type="arc"
         d="M 60.010717,28.303036 A 13.587809,34.978111 0 0 1 53.196537,58.625043 13.587809,34.978111 0 0 1 39.588514,58.53455 13.587809,34.978111 0 0 1 32.835282,28.122321"
         sodipodi:open="true" /><path
         id="lpe_path-effect22111-55"
         style="fill:#ccff00;fill-opacity:1;stroke:none;stroke-width:10.7155;stroke-linecap:round;stroke-linejoin:round;stroke-miterlimit:6.6;stroke-opacity:1"
         class="powerclip"
         d="M 2.9160387,26.927178 H 89.894893 V 110.05446 H 2.9160387 Z m 29.9192433,1.195143 a 13.587809,34.978111 0 0 0 6.753232,30.412229 13.587809,34.978111 0 0 0 13.608023,0.09049 13.587809,34.978111 0 0 0 6.81418,-30.322007" /></clipPath><inkscape:path-effect
       effect="powerclip"
       message=""
       id="path-effect22111-4"
       is_visible="true"
       lpeversion="1"
       inverse="true"
       flatten="false"
       hide_clip="false" /><clipPath
       clipPathUnits="userSpaceOnUse"
       id="clipath_lpe_path-effect22111-4"><path
         style="display:block;fill:#ccff00;fill-opacity:1;stroke:none;stroke-width:10.7155;stroke-linecap:round;stroke-linejoin:round;stroke-miterlimit:6.6;stroke-opacity:1"
         id="path22119"
         inkscape:transform-center-x="8.1911751"
         inkscape:transform-center-y="18.33957"
         transform="matrix(0.99996798,-0.00800234,0.00450492,0.99998985,0,0)"
         sodipodi:type="arc"
         sodipodi:cx="46.422909"
         sodipodi:cy="28.303036"
         sodipodi:rx="13.587809"
         sodipodi:ry="34.978111"
         sodipodi:start="0"
         sodipodi:end="3.1467592"
         sodipodi:arc-type="arc"
         sodipodi:open="true" /></clipPath><clipPath
       clipPathUnits="userSpaceOnUse"
       id="clipath_lpe_path-effect22111-4-7"><path
         style="display:none;fill:#ccff00;fill-opacity:1;stroke:none;stroke-width:10.7155;stroke-linecap:round;stroke-linejoin:round;stroke-miterlimit:6.6;stroke-opacity:1"
         id="path22119-5"
         inkscape:transform-center-x="8.1911751"
         inkscape:transform-center-y="18.33957"
         transform="matrix(0.99996798,-0.00800234,0.00450492,0.99998985,0,0)"
         sodipodi:type="arc"
         sodipodi:cx="46.422909"
         sodipodi:cy="28.303036"
         sodipodi:rx="13.587809"
         sodipodi:ry="34.978111"
         sodipodi:start="0"
         sodipodi:end="3.1467592"
         sodipodi:arc-type="arc"
         d="M 60.010717,28.303036 A 13.587809,34.978111 0 0 1 53.196537,58.625043 13.587809,34.978111 0 0 1 39.588514,58.53455 13.587809,34.978111 0 0 1 32.835282,28.122321"
         sodipodi:open="true" /></clipPath><inkscape:path-effect
       effect="powerclip"
       message=""
       id="path-effect22111-4-5"
       is_visible="true"
       lpeversion="1"
       inverse="true"
       flatten="false"
       hide_clip="false" /><clipPath
       clipPathUnits="userSpaceOnUse"
       id="clipath_lpe_path-effect22111-4-5"><path
         style="display:none;fill:#ccff00;fill-opacity:1;stroke:none;stroke-width:10.7155;stroke-linecap:round;stroke-linejoin:round;stroke-miterlimit:6.6;stroke-opacity:1"
         id="path1"
         inkscape:transform-center-x="8.1911751"
         inkscape:transform-center-y="18.33957"
         transform="matrix(0.99996798,-0.00800234,0.00450492,0.99998985,0,0)"
         sodipodi:type="arc"
         sodipodi:cx="46.422909"
         sodipodi:cy="28.303036"
         sodipodi:rx="13.587809"
         sodipodi:ry="34.978111"
         sodipodi:start="0"
         sodipodi:end="3.1467592"
         sodipodi:arc-type="arc"
         d="M 60.010717,28.303036 A 13.587809,34.978111 0 0 1 53.196537,58.625043 13.587809,34.978111 0 0 1 39.588514,58.53455 13.587809,34.978111 0 0 1 32.835282,28.122321"
         sodipodi:open="true" /><path
         id="lpe_path-effect22111-4-5"
         style="fill:#ccff00;fill-opacity:1;stroke:none;stroke-width:10.7155;stroke-linecap:round;stroke-linejoin:round;stroke-miterlimit:6.6;stroke-opacity:1"
         class="powerclip"
         d="M 2.8531362,34.344676 H 42.355983 V 110.00568 H 2.8531362 Z M 32.835282,28.122321 a 13.587809,34.978111 0 0 0 6.753232,30.412229 13.587809,34.978111 0 0 0 13.608023,0.09049 13.587809,34.978111 0 0 0 6.81418,-30.322007" /></clipPath><clipPath
       clipPathUnits="userSpaceOnUse"
       id="clipPath22113-4-0-2"><path
         style="fill:#d40000;stroke-width:0.976324"
         d="M 8.0914646,104.88546 C 7.9950038,104.789 -26.40646,102.82609 4.2122415,88.606077 9.0955947,86.338139 -11.322119,74.122902 5.3394841,70.228396 L 4.427697,65.508471 C 5.4575429,59.266084 5.9050118,52.527537 10.013898,46.542473 12.405765,43.058447 21.826681,35.118884 26.4155,32.610975 c 4.67504,-2.555032 6.699988,5.687333 7.590235,8.105143 0.958115,2.602132 -0.06722,1.533313 0.296021,2.035622 l -1.127508,0.20946 c -0.24939,0.04633 -1.394571,0.855288 -2.695182,1.504271 -9.011585,4.496615 -15.914742,13.837557 -17.97208,24.318767 l -0.553117,2.817901 -0.09519,14.788764 -0.09509,14.788757 h 5.438308 5.438319 l 0.002,-12.980524 c 0.0029,-16.810442 0.467893,-20.255137 3.388751,-25.095616 2.871818,-4.759205 9.796356,-12.565895 10.241736,-10.438142 0.08182,0.390708 1.763082,2.624221 1.583867,3.179157 l -0.500587,1.550059 -0.550471,0.37963 c -3.746945,2.584017 -4.208844,7.541775 -6.205377,11.568163 -1.661771,3.351263 0.930397,0.215596 -0.9066,18.332808 l -1.853874,18.283655 -9.701051,1.79041 c -4.971326,0.9175 -12.8494128,-0.81836 -12.9458931,-0.91489 z m 58.1185654,-0.003 c -0.0947,-0.0947 -5.506468,-7.651113 -3.645209,-16.420725 L 64.158982,74.280138 62.859505,72.214294 C 60.013189,67.689366 60.979541,60.746789 57.061231,58.507729 56.31533,58.081497 55.705059,57.562847 55.705059,57.355172 c 0,-0.639639 -0.297385,-2.911804 0.09945,-3.062413 l 0.874675,-1.580998 1.598189,0.805163 c 5.947266,2.996216 9.286843,9.362037 11.071475,15.889512 l 0.670939,2.45403 0.09099,14.659604 0.09099,14.65961 h 5.428936 l 4.341943,-0.73084 -0.91425,-14.45276 -0.954517,-9.255673 -4.128352,-5.05641 C 71.493487,68.64399 74.893083,67.294581 73.107377,63.521373 70.293182,57.574961 67.932153,47.083446 62.173485,44.397383 61.102126,43.897661 60.03478,43.327151 59.801604,43.129584 l -0.423958,-0.359214 0.0013,-1.853073 c 0.0016,-2.279548 1.290974,-2.664478 2.957578,-1.92798 6.967698,0.222337 21.806402,0.660002 21.315808,9.018762 -0.04226,0.720003 -0.416475,6.5464 -0.259355,6.759513 1.150256,1.560187 0.367995,10.629538 1.106213,15.181488 l 0.39377,2.428024 9.77e-4,16.338678 0.725632,17.678548 -10.43656,2.33502 c -4.97021,1.11201 -12.749987,-3.75239 -12.8447,-3.8471 z M 39.941198,57.636104 c -0.13856,-0.364438 -0.251921,-0.770827 -0.251921,-0.903088 0,-0.13226 -0.231174,-0.909337 -0.513722,-1.726837 -0.648348,-1.875892 -2.283602,-7.907134 -4.255103,-15.693908 -0.215826,-0.852454 -0.557178,-2.073012 -0.758554,-2.71235 -0.201377,-0.63934 -0.443915,-1.538668 -0.53897,-1.998506 l -0.172839,-0.83607 0.600986,-0.228749 c 4.850426,-1.846195 15.874967,-2.159282 22.945573,-0.651635 2.547307,0.543156 3.32696,1.963491 2.001971,3.647089 -0.138345,0.175786 -0.184056,0.495455 -0.101586,0.710378 0.0825,0.214923 0.04198,0.390768 -0.08992,0.390768 -0.131911,0 -0.354913,0.435913 -0.495543,0.968696 -0.140639,0.532785 -0.623812,2.363621 -1.073722,4.068526 -0.449899,1.704905 -1.045916,4.029777 -1.324471,5.16638 -0.278565,1.136604 -0.782826,2.996501 -1.120585,4.133105 -0.337759,1.136603 -0.872238,2.978889 -1.187718,4.09397 -0.684286,2.418604 -0.665804,2.408867 -3.564665,1.878514 -2.829045,-0.517581 -3.943939,-0.522737 -6.734692,-0.03115 -2.907922,0.512226 -3.070236,0.498953 -3.364549,-0.275135 z"
         id="path22113-7-6-7"
         sodipodi:nodetypes="csccssscscsccccccscscssscscccscsssscsscccccccsssscscssscccscccssssccssscssssscsscc"
         clip-path="url(#clipath_lpe_path-effect22111-9-8-3-0)"
         transform="matrix(1.0246241,0,0,1.0159547,51.875387,-144.85161)"
         inkscape:path-effect="#path-effect22111-9-5-0-3" /></clipPath><clipPath
       clipPathUnits="userSpaceOnUse"
       id="clipath_lpe_path-effect22111-9-8-3-0"><path
         style="display:block;fill:#ccff00;fill-opacity:1;stroke:none;stroke-width:10.7155;stroke-linecap:round;stroke-linejoin:round;stroke-miterlimit:6.6;stroke-opacity:1"
         id="path22112-4-2-9"
         inkscape:transform-center-x="8.1911751"
         inkscape:transform-center-y="18.33957"
         transform="matrix(0.99996798,-0.00800234,0.00450492,0.99998985,0,0)"
         sodipodi:type="arc"
         sodipodi:cx="46.422909"
         sodipodi:cy="28.303036"
         sodipodi:rx="13.587809"
         sodipodi:ry="34.978111"
         sodipodi:start="0"
         sodipodi:end="3.1467592"
         sodipodi:arc-type="arc"
         sodipodi:open="true"
         d="M 60.010717,28.303036 A 13.587809,34.978111 0 0 1 53.196537,58.625043 13.587809,34.978111 0 0 1 39.588514,58.53455 13.587809,34.978111 0 0 1 32.835282,28.122321" /></clipPath><inkscape:path-effect
       effect="powerclip"
       message=""
       id="path-effect22111-9-5-0-3"
       is_visible="true"
       lpeversion="1"
       inverse="true"
       flatten="false"
       hide_clip="false" /><clipPath
       clipPathUnits="userSpaceOnUse"
       id="clipath_lpe_path-effect22111-4-6"><path
         style="display:none;fill:#ccff00;fill-opacity:1;stroke:none;stroke-width:10.7155;stroke-linecap:round;stroke-linejoin:round;stroke-miterlimit:6.6;stroke-opacity:1"
         id="path22119-0"
         inkscape:transform-center-x="8.1911751"
         inkscape:transform-center-y="18.33957"
         transform="matrix(0.99996798,-0.00800234,0.00450492,0.99998985,0,0)"
         sodipodi:type="arc"
         sodipodi:cx="46.422909"
         sodipodi:cy="28.303036"
         sodipodi:rx="13.587809"
         sodipodi:ry="34.978111"
         sodipodi:start="0"
         sodipodi:end="3.1467592"
         sodipodi:arc-type="arc"
         d="M 60.010717,28.303036 A 13.587809,34.978111 0 0 1 53.196537,58.625043 13.587809,34.978111 0 0 1 39.588514,58.53455 13.587809,34.978111 0 0 1 32.835282,28.122321"
         sodipodi:open="true" /><path
         id="lpe_path-effect22111-4-6"
         style="fill:#ccff00;fill-opacity:1;stroke:none;stroke-width:10.7155;stroke-linecap:round;stroke-linejoin:round;stroke-miterlimit:6.6;stroke-opacity:1"
         class="powerclip"
         d="M 2.9160387,34.344676 H 42.355983 V 110.00568 H 2.9160387 Z M 32.835282,28.122321 a 13.587809,34.978111 0 0 0 6.753232,30.412229 13.587809,34.978111 0 0 0 13.608023,0.09049 13.587809,34.978111 0 0 0 6.81418,-30.322007" /></clipPath><inkscape:path-effect
       effect="powerclip"
       message=""
       id="path-effect22111-4-2"
       is_visible="true"
       lpeversion="1"
       inverse="true"
       flatten="false"
       hide_clip="false" /><clipPath
       clipPathUnits="userSpaceOnUse"
       id="clipath_lpe_path-effect22111-4-5-6" /><inkscape:path-effect
       effect="powerclip"
       message=""
       id="path-effect22111-4-5-7"
       is_visible="true"
       lpeversion="1"
       inverse="true"
       flatten="false"
       hide_clip="false" /><clipPath
       clipPathUnits="userSpaceOnUse"
       id="clipath_lpe_path-effect22111-4-2"><path
         style="display:block;fill:#ccff00;fill-opacity:1;stroke:none;stroke-width:10.7155;stroke-linecap:round;stroke-linejoin:round;stroke-miterlimit:6.6;stroke-opacity:1"
         id="path3"
         inkscape:transform-center-x="8.1911751"
         inkscape:transform-center-y="18.33957"
         transform="matrix(0.99996798,-0.00800234,0.00450492,0.99998985,0,0)"
         sodipodi:type="arc"
         sodipodi:cx="46.422909"
         sodipodi:cy="28.303036"
         sodipodi:rx="13.587809"
         sodipodi:ry="34.978111"
         sodipodi:start="0"
         sodipodi:end="3.1467592"
         sodipodi:arc-type="arc"
         sodipodi:open="true" /></clipPath><clipPath
       clipPathUnits="userSpaceOnUse"
       id="clipath_lpe_path-effect22111-4-5-7"><path
         style="display:block;fill:#ccff00;fill-opacity:1;stroke:none;stroke-width:10.7155;stroke-linecap:round;stroke-linejoin:round;stroke-miterlimit:6.6;stroke-opacity:1"
         id="path4"
         inkscape:transform-center-x="8.1911751"
         inkscape:transform-center-y="18.33957"
         transform="matrix(0.99996798,-0.00800234,0.00450492,0.99998985,0,0)"
         sodipodi:type="arc"
         sodipodi:cx="46.422909"
         sodipodi:cy="28.303036"
         sodipodi:rx="13.587809"
         sodipodi:ry="34.978111"
         sodipodi:start="0"
         sodipodi:end="3.1467592"
         sodipodi:arc-type="arc"
         sodipodi:open="true" /></clipPath><clipPath
       clipPathUnits="userSpaceOnUse"
       id="clipPath22113-4-0-22"><path
         style="fill:#d40000;stroke-width:0.976324"
         d="M 8.0914646,104.88546 C 7.9950038,104.789 -26.40646,102.82609 4.2122415,88.606077 9.0955947,86.338139 -11.322119,74.122902 5.3394841,70.228396 L 4.427697,65.508471 C 5.4575429,59.266084 5.9050118,52.527537 10.013898,46.542473 12.405765,43.058447 21.826681,35.118884 26.4155,32.610975 c 4.67504,-2.555032 6.699988,5.687333 7.590235,8.105143 0.958115,2.602132 -0.06722,1.533313 0.296021,2.035622 l -1.127508,0.20946 c -0.24939,0.04633 -1.394571,0.855288 -2.695182,1.504271 -9.011585,4.496615 -15.914742,13.837557 -17.97208,24.318767 l -0.553117,2.817901 -0.09519,14.788764 -0.09509,14.788757 h 5.438308 5.438319 l 0.002,-12.980524 c 0.0029,-16.810442 0.467893,-20.255137 3.388751,-25.095616 2.871818,-4.759205 9.796356,-12.565895 10.241736,-10.438142 0.08182,0.390708 1.763082,2.624221 1.583867,3.179157 l -0.500587,1.550059 -0.550471,0.37963 c -3.746945,2.584017 -4.208844,7.541775 -6.205377,11.568163 -1.661771,3.351263 0.930397,0.215596 -0.9066,18.332808 l -1.853874,18.283655 -9.701051,1.79041 c -4.971326,0.9175 -12.8494128,-0.81836 -12.9458931,-0.91489 z m 58.1185654,-0.003 c -0.0947,-0.0947 -5.506468,-7.651113 -3.645209,-16.420725 L 64.158982,74.280138 62.859505,72.214294 C 60.013189,67.689366 60.979541,60.746789 57.061231,58.507729 56.31533,58.081497 55.705059,57.562847 55.705059,57.355172 c 0,-0.639639 -0.297385,-2.911804 0.09945,-3.062413 l 0.874675,-1.580998 1.598189,0.805163 c 5.947266,2.996216 9.286843,9.362037 11.071475,15.889512 l 0.670939,2.45403 0.09099,14.659604 0.09099,14.65961 h 5.428936 l 4.341943,-0.73084 -0.91425,-14.45276 -0.954517,-9.255673 -4.128352,-5.05641 C 71.493487,68.64399 74.893083,67.294581 73.107377,63.521373 70.293182,57.574961 67.932153,47.083446 62.173485,44.397383 61.102126,43.897661 60.03478,43.327151 59.801604,43.129584 l -0.423958,-0.359214 0.0013,-1.853073 c 0.0016,-2.279548 1.290974,-2.664478 2.957578,-1.92798 6.967698,0.222337 21.806402,0.660002 21.315808,9.018762 -0.04226,0.720003 -0.416475,6.5464 -0.259355,6.759513 1.150256,1.560187 0.367995,10.629538 1.106213,15.181488 l 0.39377,2.428024 9.77e-4,16.338678 0.725632,17.678548 -10.43656,2.33502 c -4.97021,1.11201 -12.749987,-3.75239 -12.8447,-3.8471 z M 39.941198,57.636104 c -0.13856,-0.364438 -0.251921,-0.770827 -0.251921,-0.903088 0,-0.13226 -0.231174,-0.909337 -0.513722,-1.726837 -0.648348,-1.875892 -2.283602,-7.907134 -4.255103,-15.693908 -0.215826,-0.852454 -0.557178,-2.073012 -0.758554,-2.71235 -0.201377,-0.63934 -0.443915,-1.538668 -0.53897,-1.998506 l -0.172839,-0.83607 0.600986,-0.228749 c 4.850426,-1.846195 15.874967,-2.159282 22.945573,-0.651635 2.547307,0.543156 3.32696,1.963491 2.001971,3.647089 -0.138345,0.175786 -0.184056,0.495455 -0.101586,0.710378 0.0825,0.214923 0.04198,0.390768 -0.08992,0.390768 -0.131911,0 -0.354913,0.435913 -0.495543,0.968696 -0.140639,0.532785 -0.623812,2.363621 -1.073722,4.068526 -0.449899,1.704905 -1.045916,4.029777 -1.324471,5.16638 -0.278565,1.136604 -0.782826,2.996501 -1.120585,4.133105 -0.337759,1.136603 -0.872238,2.978889 -1.187718,4.09397 -0.684286,2.418604 -0.665804,2.408867 -3.564665,1.878514 -2.829045,-0.517581 -3.943939,-0.522737 -6.734692,-0.03115 -2.907922,0.512226 -3.070236,0.498953 -3.364549,-0.275135 z"
         id="path22113-7-6-8"
         sodipodi:nodetypes="csccssscscsccccccscscssscscccscsssscsscccccccsssscscssscccscccssssccssscssssscsscc"
         clip-path="url(#clipath_lpe_path-effect22111-9-8-3-9)"
         transform="matrix(1.0246241,0,0,1.0159547,51.875387,-144.85161)"
         inkscape:path-effect="#path-effect22111-9-5-0-36" /></clipPath><clipPath
       clipPathUnits="userSpaceOnUse"
       id="clipath_lpe_path-effect22111-9-8-3-9"><path
         style="display:block;fill:#ccff00;fill-opacity:1;stroke:none;stroke-width:10.7155;stroke-linecap:round;stroke-linejoin:round;stroke-miterlimit:6.6;stroke-opacity:1"
         id="path22112-4-2-7"
         inkscape:transform-center-x="8.1911751"
         inkscape:transform-center-y="18.33957"
         transform="matrix(0.99996798,-0.00800234,0.00450492,0.99998985,0,0)"
         sodipodi:type="arc"
         sodipodi:cx="46.422909"
         sodipodi:cy="28.303036"
         sodipodi:rx="13.587809"
         sodipodi:ry="34.978111"
         sodipodi:start="0"
         sodipodi:end="3.1467592"
         sodipodi:arc-type="arc"
         sodipodi:open="true"
         d="M 60.010717,28.303036 A 13.587809,34.978111 0 0 1 53.196537,58.625043 13.587809,34.978111 0 0 1 39.588514,58.53455 13.587809,34.978111 0 0 1 32.835282,28.122321" /></clipPath><inkscape:path-effect
       effect="powerclip"
       message=""
       id="path-effect22111-9-5-0-36"
       is_visible="true"
       lpeversion="1"
       inverse="true"
       flatten="false"
       hide_clip="false" /><clipPath
       clipPathUnits="userSpaceOnUse"
       id="clipath_lpe_path-effect22111-4-1"><path
         style="display:block;fill:#ccff00;fill-opacity:1;stroke:none;stroke-width:10.7155;stroke-linecap:round;stroke-linejoin:round;stroke-miterlimit:6.6;stroke-opacity:1"
         id="path22119-2"
         inkscape:transform-center-x="8.1911751"
         inkscape:transform-center-y="18.33957"
         transform="matrix(0.99996798,-0.00800234,0.00450492,0.99998985,0,0)"
         sodipodi:type="arc"
         sodipodi:cx="46.422909"
         sodipodi:cy="28.303036"
         sodipodi:rx="13.587809"
         sodipodi:ry="34.978111"
         sodipodi:start="0"
         sodipodi:end="3.1467592"
         sodipodi:arc-type="arc"
         sodipodi:open="true" /><path
         id="lpe_path-effect22111-4-9"
         style="fill:#ccff00;fill-opacity:1;stroke:none;stroke-width:10.7155;stroke-linecap:round;stroke-linejoin:round;stroke-miterlimit:6.6;stroke-opacity:1"
         class="powerclip"
         d="M 2.9160387,34.344676 H 42.355983 V 110.00568 H 2.9160387 Z M 32.835282,28.122321 a 13.587809,34.978111 0 0 0 6.753232,30.412229 13.587809,34.978111 0 0 0 13.608023,0.09049 13.587809,34.978111 0 0 0 6.81418,-30.322007" /></clipPath><inkscape:path-effect
       effect="powerclip"
       message=""
       id="path-effect22111-4-3"
       is_visible="true"
       lpeversion="1"
       inverse="true"
       flatten="false"
       hide_clip="false" /><clipPath
       clipPathUnits="userSpaceOnUse"
       id="clipath_lpe_path-effect22111-4-5-1"><path
         style="display:none;fill:#ccff00;fill-opacity:1;stroke:none;stroke-width:10.7155;stroke-linecap:round;stroke-linejoin:round;stroke-miterlimit:6.6;stroke-opacity:1"
         id="path1-9"
         inkscape:transform-center-x="8.1911751"
         inkscape:transform-center-y="18.33957"
         transform="matrix(0.99996798,-0.00800234,0.00450492,0.99998985,0,0)"
         sodipodi:type="arc"
         sodipodi:cx="46.422909"
         sodipodi:cy="28.303036"
         sodipodi:rx="13.587809"
         sodipodi:ry="34.978111"
         sodipodi:start="0"
         sodipodi:end="3.1467592"
         sodipodi:arc-type="arc"
         d="M 60.010717,28.303036 A 13.587809,34.978111 0 0 1 53.196537,58.625043 13.587809,34.978111 0 0 1 39.588514,58.53455 13.587809,34.978111 0 0 1 32.835282,28.122321"
         sodipodi:open="true" /></clipPath><inkscape:path-effect
       effect="powerclip"
       message=""
       id="path-effect22111-4-5-78"
       is_visible="true"
       lpeversion="1"
       inverse="true"
       flatten="false"
       hide_clip="false" /><clipPath
       clipPathUnits="userSpaceOnUse"
       id="clipath_lpe_path-effect22111-4-5-78"><path
         style="display:block;fill:#ccff00;fill-opacity:1;stroke:none;stroke-width:10.7155;stroke-linecap:round;stroke-linejoin:round;stroke-miterlimit:6.6;stroke-opacity:1"
         id="path5"
         inkscape:transform-center-x="8.1911751"
         inkscape:transform-center-y="18.33957"
         transform="matrix(0.99996798,-0.00800234,0.00450492,0.99998985,0,0)"
         sodipodi:type="arc"
         sodipodi:cx="46.422909"
         sodipodi:cy="28.303036"
         sodipodi:rx="13.587809"
         sodipodi:ry="34.978111"
         sodipodi:start="0"
         sodipodi:end="3.1467592"
         sodipodi:arc-type="arc"
         sodipodi:open="true" /></clipPath><clipPath
       clipPathUnits="userSpaceOnUse"
       id="clipath_lpe_path-effect22111-4-5-75"><path
         style="display:none;fill:#ccff00;fill-opacity:1;stroke:none;stroke-width:10.7155;stroke-linecap:round;stroke-linejoin:round;stroke-miterlimit:6.6;stroke-opacity:1"
         id="path1-3"
         inkscape:transform-center-x="8.1911751"
         inkscape:transform-center-y="18.33957"
         transform="matrix(0.99996798,-0.00800234,0.00450492,0.99998985,0,0)"
         sodipodi:type="arc"
         sodipodi:cx="46.422909"
         sodipodi:cy="28.303036"
         sodipodi:rx="13.587809"
         sodipodi:ry="34.978111"
         sodipodi:start="0"
         sodipodi:end="3.1467592"
         sodipodi:arc-type="arc"
         d="M 60.010717,28.303036 A 13.587809,34.978111 0 0 1 53.196537,58.625043 13.587809,34.978111 0 0 1 39.588514,58.53455 13.587809,34.978111 0 0 1 32.835282,28.122321"
         sodipodi:open="true" /><path
         id="lpe_path-effect22111-4-5-5"
         style="fill:#ccff00;fill-opacity:1;stroke:none;stroke-width:10.7155;stroke-linecap:round;stroke-linejoin:round;stroke-miterlimit:6.6;stroke-opacity:1"
         class="powerclip"
         d="M 2.8531362,34.344676 H 42.355983 V 110.00568 H 2.8531362 Z M 32.835282,28.122321 a 13.587809,34.978111 0 0 0 6.753232,30.412229 13.587809,34.978111 0 0 0 13.608023,0.09049 13.587809,34.978111 0 0 0 6.81418,-30.322007" /></clipPath><inkscape:path-effect
       effect="powerclip"
       message=""
       id="path-effect22111-4-5-6"
       is_visible="true"
       lpeversion="1"
       inverse="true"
       flatten="false"
       hide_clip="false" /><clipPath
       clipPathUnits="userSpaceOnUse"
       id="clipPath6"><path
         style="display:none;fill:#ccff00;fill-opacity:1;stroke:none;stroke-width:10.7155;stroke-linecap:round;stroke-linejoin:round;stroke-miterlimit:6.6;stroke-opacity:1"
         id="path2"
         inkscape:transform-center-x="8.1911751"
         inkscape:transform-center-y="18.33957"
         transform="matrix(0.99996798,-0.00800234,0.00450492,0.99998985,0,0)"
         sodipodi:type="arc"
         sodipodi:cx="46.422909"
         sodipodi:cy="28.303036"
         sodipodi:rx="13.587809"
         sodipodi:ry="34.978111"
         sodipodi:start="0"
         sodipodi:end="3.1467592"
         sodipodi:arc-type="arc"
         d="M 60.010717,28.303036 A 13.587809,34.978111 0 0 1 53.196537,58.625043 13.587809,34.978111 0 0 1 39.588514,58.53455 13.587809,34.978111 0 0 1 32.835282,28.122321"
         sodipodi:open="true" /><path
         id="lpe_path-effect22111-4-5-6"
         style="fill:#ccff00;fill-opacity:1;stroke:none;stroke-width:10.7155;stroke-linecap:round;stroke-linejoin:round;stroke-miterlimit:6.6;stroke-opacity:1"
         class="powerclip"
         d="M 2.8531362,34.344676 H 42.355983 V 110.00568 H 2.8531362 Z M 32.835282,28.122321 a 13.587809,34.978111 0 0 0 6.753232,30.412229 13.587809,34.978111 0 0 0 13.608023,0.09049 13.587809,34.978111 0 0 0 6.81418,-30.322007" /></clipPath><clipPath
       clipPathUnits="userSpaceOnUse"
       id="clipPath22113-4-0-7"><path
         style="fill:#d40000;stroke-width:0.976324"
         d="M 8.0914646,104.88546 C 7.9950038,104.789 -26.40646,102.82609 4.2122415,88.606077 9.0955947,86.338139 -11.322119,74.122902 5.3394841,70.228396 L 4.427697,65.508471 C 5.4575429,59.266084 5.9050118,52.527537 10.013898,46.542473 12.405765,43.058447 21.826681,35.118884 26.4155,32.610975 c 4.67504,-2.555032 6.699988,5.687333 7.590235,8.105143 0.958115,2.602132 -0.06722,1.533313 0.296021,2.035622 l -1.127508,0.20946 c -0.24939,0.04633 -1.394571,0.855288 -2.695182,1.504271 -9.011585,4.496615 -15.914742,13.837557 -17.97208,24.318767 l -0.553117,2.817901 -0.09519,14.788764 -0.09509,14.788757 h 5.438308 5.438319 l 0.002,-12.980524 c 0.0029,-16.810442 0.467893,-20.255137 3.388751,-25.095616 2.871818,-4.759205 9.796356,-12.565895 10.241736,-10.438142 0.08182,0.390708 1.763082,2.624221 1.583867,3.179157 l -0.500587,1.550059 -0.550471,0.37963 c -3.746945,2.584017 -4.208844,7.541775 -6.205377,11.568163 -1.661771,3.351263 0.930397,0.215596 -0.9066,18.332808 l -1.853874,18.283655 -9.701051,1.79041 c -4.971326,0.9175 -12.8494128,-0.81836 -12.9458931,-0.91489 z m 58.1185654,-0.003 c -0.0947,-0.0947 -5.506468,-7.651113 -3.645209,-16.420725 L 64.158982,74.280138 62.859505,72.214294 C 60.013189,67.689366 60.979541,60.746789 57.061231,58.507729 56.31533,58.081497 55.705059,57.562847 55.705059,57.355172 c 0,-0.639639 -0.297385,-2.911804 0.09945,-3.062413 l 0.874675,-1.580998 1.598189,0.805163 c 5.947266,2.996216 9.286843,9.362037 11.071475,15.889512 l 0.670939,2.45403 0.09099,14.659604 0.09099,14.65961 h 5.428936 l 4.341943,-0.73084 -0.91425,-14.45276 -0.954517,-9.255673 -4.128352,-5.05641 C 71.493487,68.64399 74.893083,67.294581 73.107377,63.521373 70.293182,57.574961 67.932153,47.083446 62.173485,44.397383 61.102126,43.897661 60.03478,43.327151 59.801604,43.129584 l -0.423958,-0.359214 0.0013,-1.853073 c 0.0016,-2.279548 1.290974,-2.664478 2.957578,-1.92798 6.967698,0.222337 21.806402,0.660002 21.315808,9.018762 -0.04226,0.720003 -0.416475,6.5464 -0.259355,6.759513 1.150256,1.560187 0.367995,10.629538 1.106213,15.181488 l 0.39377,2.428024 9.77e-4,16.338678 0.725632,17.678548 -10.43656,2.33502 c -4.97021,1.11201 -12.749987,-3.75239 -12.8447,-3.8471 z M 39.941198,57.636104 c -0.13856,-0.364438 -0.251921,-0.770827 -0.251921,-0.903088 0,-0.13226 -0.231174,-0.909337 -0.513722,-1.726837 -0.648348,-1.875892 -2.283602,-7.907134 -4.255103,-15.693908 -0.215826,-0.852454 -0.557178,-2.073012 -0.758554,-2.71235 -0.201377,-0.63934 -0.443915,-1.538668 -0.53897,-1.998506 l -0.172839,-0.83607 0.600986,-0.228749 c 4.850426,-1.846195 15.874967,-2.159282 22.945573,-0.651635 2.547307,0.543156 3.32696,1.963491 2.001971,3.647089 -0.138345,0.175786 -0.184056,0.495455 -0.101586,0.710378 0.0825,0.214923 0.04198,0.390768 -0.08992,0.390768 -0.131911,0 -0.354913,0.435913 -0.495543,0.968696 -0.140639,0.532785 -0.623812,2.363621 -1.073722,4.068526 -0.449899,1.704905 -1.045916,4.029777 -1.324471,5.16638 -0.278565,1.136604 -0.782826,2.996501 -1.120585,4.133105 -0.337759,1.136603 -0.872238,2.978889 -1.187718,4.09397 -0.684286,2.418604 -0.665804,2.408867 -3.564665,1.878514 -2.829045,-0.517581 -3.943939,-0.522737 -6.734692,-0.03115 -2.907922,0.512226 -3.070236,0.498953 -3.364549,-0.275135 z"
         id="path22113-7-6-0"
         sodipodi:nodetypes="csccssscscsccccccscscssscscccscsssscsscccccccsssscscssscccscccssssccssscssssscsscc"
         clip-path="url(#clipath_lpe_path-effect22111-9-8-3-93)"
         transform="matrix(1.0246241,0,0,1.0159547,51.875387,-144.85161)"
         inkscape:path-effect="#path-effect22111-9-5-0-0" /></clipPath><clipPath
       clipPathUnits="userSpaceOnUse"
       id="clipath_lpe_path-effect22111-9-8-3-93"><path
         style="display:block;fill:#ccff00;fill-opacity:1;stroke:none;stroke-width:10.7155;stroke-linecap:round;stroke-linejoin:round;stroke-miterlimit:6.6;stroke-opacity:1"
         id="path22112-4-2-6"
         inkscape:transform-center-x="8.1911751"
         inkscape:transform-center-y="18.33957"
         transform="matrix(0.99996798,-0.00800234,0.00450492,0.99998985,0,0)"
         sodipodi:type="arc"
         sodipodi:cx="46.422909"
         sodipodi:cy="28.303036"
         sodipodi:rx="13.587809"
         sodipodi:ry="34.978111"
         sodipodi:start="0"
         sodipodi:end="3.1467592"
         sodipodi:arc-type="arc"
         sodipodi:open="true"
         d="M 60.010717,28.303036 A 13.587809,34.978111 0 0 1 53.196537,58.625043 13.587809,34.978111 0 0 1 39.588514,58.53455 13.587809,34.978111 0 0 1 32.835282,28.122321" /></clipPath><inkscape:path-effect
       effect="powerclip"
       message=""
       id="path-effect22111-9-5-0-0"
       is_visible="true"
       lpeversion="1"
       inverse="true"
       flatten="false"
       hide_clip="false" /><clipPath
       clipPathUnits="userSpaceOnUse"
       id="clipath_lpe_path-effect22111-4-5-62"><path
         style="display:block;fill:#ccff00;fill-opacity:1;stroke:none;stroke-width:10.7155;stroke-linecap:round;stroke-linejoin:round;stroke-miterlimit:6.6;stroke-opacity:1"
         id="path1-6"
         inkscape:transform-center-x="8.1911751"
         inkscape:transform-center-y="18.33957"
         transform="matrix(0.99996798,-0.00800234,0.00450492,0.99998985,0,0)"
         sodipodi:type="arc"
         sodipodi:cx="46.422909"
         sodipodi:cy="28.303036"
         sodipodi:rx="13.587809"
         sodipodi:ry="34.978111"
         sodipodi:start="0"
         sodipodi:end="3.1467592"
         sodipodi:arc-type="arc"
         sodipodi:open="true" /><path
         id="lpe_path-effect22111-4-5-1"
         style="fill:#ccff00;fill-opacity:1;stroke:none;stroke-width:10.7155;stroke-linecap:round;stroke-linejoin:round;stroke-miterlimit:6.6;stroke-opacity:1"
         class="powerclip"
         d="M 2.8531362,34.344676 H 42.355983 V 110.00568 H 2.8531362 Z M 32.835282,28.122321 a 13.587809,34.978111 0 0 0 6.753232,30.412229 13.587809,34.978111 0 0 0 13.608023,0.09049 13.587809,34.978111 0 0 0 6.81418,-30.322007" /></clipPath><inkscape:path-effect
       effect="powerclip"
       message=""
       id="path-effect22111-4-5-8"
       is_visible="true"
       lpeversion="1"
       inverse="true"
       flatten="false"
       hide_clip="false" /><clipPath
       clipPathUnits="userSpaceOnUse"
       id="clipath_lpe_path-effect22111-4-5-6-7"><path
         style="display:none;fill:#ccff00;fill-opacity:1;stroke:none;stroke-width:10.7155;stroke-linecap:round;stroke-linejoin:round;stroke-miterlimit:6.6;stroke-opacity:1"
         id="path1-1-9"
         inkscape:transform-center-x="8.1911751"
         inkscape:transform-center-y="18.33957"
         transform="matrix(0.99996798,-0.00800234,0.00450492,0.99998985,0,0)"
         sodipodi:type="arc"
         sodipodi:cx="46.422909"
         sodipodi:cy="28.303036"
         sodipodi:rx="13.587809"
         sodipodi:ry="34.978111"
         sodipodi:start="0"
         sodipodi:end="3.1467592"
         sodipodi:arc-type="arc"
         sodipodi:open="true"
         d="M 60.010717,28.303036 A 13.587809,34.978111 0 0 1 53.196537,58.625043 13.587809,34.978111 0 0 1 39.588514,58.53455 13.587809,34.978111 0 0 1 32.835282,28.122321" /><path
         id="lpe_path-effect22111-4-5-8-2"
         style="fill:#ccff00;fill-opacity:1;stroke:none;stroke-width:10.7155;stroke-linecap:round;stroke-linejoin:round;stroke-miterlimit:6.6;stroke-opacity:1"
         class="powerclip"
         d="M 2.9160387,34.344676 H 42.355983 V 110.00568 H 2.9160387 Z M 32.835282,28.122321 a 13.587809,34.978111 0 0 0 6.753232,30.412229 13.587809,34.978111 0 0 0 13.608023,0.09049 13.587809,34.978111 0 0 0 6.81418,-30.322007" /></clipPath><inkscape:path-effect
       effect="powerclip"
       message=""
       id="path-effect22111-4-5-6-0"
       is_visible="true"
       lpeversion="1"
       inverse="true"
       flatten="false"
       hide_clip="false" /><clipPath
       clipPathUnits="userSpaceOnUse"
       id="clipPath3"><path
         style="display:none;fill:#ccff00;fill-opacity:1;stroke:none;stroke-width:10.7155;stroke-linecap:round;stroke-linejoin:round;stroke-miterlimit:6.6;stroke-opacity:1"
         id="path2-2"
         inkscape:transform-center-x="8.1911751"
         inkscape:transform-center-y="18.33957"
         transform="matrix(0.99996798,-0.00800234,0.00450492,0.99998985,0,0)"
         sodipodi:type="arc"
         sodipodi:cx="46.422909"
         sodipodi:cy="28.303036"
         sodipodi:rx="13.587809"
         sodipodi:ry="34.978111"
         sodipodi:start="0"
         sodipodi:end="3.1467592"
         sodipodi:arc-type="arc"
         sodipodi:open="true"
         d="M 60.010717,28.303036 A 13.587809,34.978111 0 0 1 53.196537,58.625043 13.587809,34.978111 0 0 1 39.588514,58.53455 13.587809,34.978111 0 0 1 32.835282,28.122321" /><path
         id="lpe_path-effect22111-4-5-6-3"
         style="fill:#ccff00;fill-opacity:1;stroke:none;stroke-width:10.7155;stroke-linecap:round;stroke-linejoin:round;stroke-miterlimit:6.6;stroke-opacity:1"
         class="powerclip"
         d="M 2.8531362,34.344676 H 42.355983 V 110.00568 H 2.8531362 Z M 32.835282,28.122321 a 13.587809,34.978111 0 0 0 6.753232,30.412229 13.587809,34.978111 0 0 0 13.608023,0.09049 13.587809,34.978111 0 0 0 6.81418,-30.322007" /></clipPath><clipPath
       clipPathUnits="userSpaceOnUse"
       id="clipath_lpe_path-effect22111-4-5-6-0"><path
         style="display:block;fill:#ccff00;fill-opacity:1;stroke:none;stroke-width:10.7155;stroke-linecap:round;stroke-linejoin:round;stroke-miterlimit:6.6;stroke-opacity:1"
         id="path6"
         inkscape:transform-center-x="8.1911751"
         inkscape:transform-center-y="18.33957"
         transform="matrix(0.99996798,-0.00800234,0.00450492,0.99998985,0,0)"
         sodipodi:type="arc"
         sodipodi:cx="46.422909"
         sodipodi:cy="28.303036"
         sodipodi:rx="13.587809"
         sodipodi:ry="34.978111"
         sodipodi:start="0"
         sodipodi:end="3.1467592"
         sodipodi:arc-type="arc"
         sodipodi:open="true" /></clipPath><clipPath
       clipPathUnits="userSpaceOnUse"
       id="clipath_lpe_path-effect22111-4-5-5"><path
         style="display:none;fill:#ccff00;fill-opacity:1;stroke:none;stroke-width:10.7155;stroke-linecap:round;stroke-linejoin:round;stroke-miterlimit:6.6;stroke-opacity:1"
         id="path1-92"
         inkscape:transform-center-x="8.1911751"
         inkscape:transform-center-y="18.33957"
         transform="matrix(0.99996798,-0.00800234,0.00450492,0.99998985,0,0)"
         sodipodi:type="arc"
         sodipodi:cx="46.422909"
         sodipodi:cy="28.303036"
         sodipodi:rx="13.587809"
         sodipodi:ry="34.978111"
         sodipodi:start="0"
         sodipodi:end="3.1467592"
         sodipodi:arc-type="arc"
         d="M 60.010717,28.303036 A 13.587809,34.978111 0 0 1 53.196537,58.625043 13.587809,34.978111 0 0 1 39.588514,58.53455 13.587809,34.978111 0 0 1 32.835282,28.122321"
         sodipodi:open="true" /><path
         id="lpe_path-effect22111-4-5-2"
         style="fill:#ccff00;fill-opacity:1;stroke:none;stroke-width:10.7155;stroke-linecap:round;stroke-linejoin:round;stroke-miterlimit:6.6;stroke-opacity:1"
         class="powerclip"
         d="M 2.8531362,34.344676 H 42.355983 V 110.00568 H 2.8531362 Z M 32.835282,28.122321 a 13.587809,34.978111 0 0 0 6.753232,30.412229 13.587809,34.978111 0 0 0 13.608023,0.09049 13.587809,34.978111 0 0 0 6.81418,-30.322007" /></clipPath><inkscape:path-effect
       effect="powerclip"
       message=""
       id="path-effect22111-4-5-89"
       is_visible="true"
       lpeversion="1"
       inverse="true"
       flatten="false"
       hide_clip="false" /><clipPath
       clipPathUnits="userSpaceOnUse"
       id="clipath_lpe_path-effect22111-4-5-89"><path
         style="display:none;fill:#ccff00;fill-opacity:1;stroke:none;stroke-width:10.7155;stroke-linecap:round;stroke-linejoin:round;stroke-miterlimit:6.6;stroke-opacity:1"
         id="path11"
         inkscape:transform-center-x="8.1911751"
         inkscape:transform-center-y="18.33957"
         transform="matrix(0.99996798,-0.00800234,0.00450492,0.99998985,0,0)"
         sodipodi:type="arc"
         sodipodi:cx="46.422909"
         sodipodi:cy="28.303036"
         sodipodi:rx="13.587809"
         sodipodi:ry="34.978111"
         sodipodi:start="0"
         sodipodi:end="3.1467592"
         sodipodi:arc-type="arc"
         d="M 60.010717,28.303036 A 13.587809,34.978111 0 0 1 53.196537,58.625043 13.587809,34.978111 0 0 1 39.588514,58.53455 13.587809,34.978111 0 0 1 32.835282,28.122321"
         sodipodi:open="true" /><path
         id="lpe_path-effect22111-4-5-89"
         style="fill:#ccff00;fill-opacity:1;stroke:none;stroke-width:10.7155;stroke-linecap:round;stroke-linejoin:round;stroke-miterlimit:6.6;stroke-opacity:1"
         class="powerclip"
         d="M 2.8531362,34.344676 H 42.355983 V 110.00568 H 2.8531362 Z M 32.835282,28.122321 a 13.587809,34.978111 0 0 0 6.753232,30.412229 13.587809,34.978111 0 0 0 13.608023,0.09049 13.587809,34.978111 0 0 0 6.81418,-30.322007" /></clipPath><clipPath
       clipPathUnits="userSpaceOnUse"
       id="clipath_lpe_path-effect22111-4-5-89-6"><path
         style="display:none;fill:#ccff00;fill-opacity:1;stroke:none;stroke-width:10.7155;stroke-linecap:round;stroke-linejoin:round;stroke-miterlimit:6.6;stroke-opacity:1"
         id="path11-2"
         inkscape:transform-center-x="8.1911751"
         inkscape:transform-center-y="18.33957"
         transform="matrix(0.99996798,-0.00800234,0.00450492,0.99998985,0,0)"
         sodipodi:type="arc"
         sodipodi:cx="46.422909"
         sodipodi:cy="28.303036"
         sodipodi:rx="13.587809"
         sodipodi:ry="34.978111"
         sodipodi:start="0"
         sodipodi:end="3.1467592"
         sodipodi:arc-type="arc"
         d="M 60.010717,28.303036 A 13.587809,34.978111 0 0 1 53.196537,58.625043 13.587809,34.978111 0 0 1 39.588514,58.53455 13.587809,34.978111 0 0 1 32.835282,28.122321"
         sodipodi:open="true" /><path
         id="lpe_path-effect22111-4-5-89-9"
         style="fill:#ccff00;fill-opacity:1;stroke:none;stroke-width:10.7155;stroke-linecap:round;stroke-linejoin:round;stroke-miterlimit:6.6;stroke-opacity:1"
         class="powerclip"
         d="M 2.8531362,34.344676 H 42.355983 V 110.00568 H 2.8531362 Z M 32.835282,28.122321 a 13.587809,34.978111 0 0 0 6.753232,30.412229 13.587809,34.978111 0 0 0 13.608023,0.09049 13.587809,34.978111 0 0 0 6.81418,-30.322007" /></clipPath><inkscape:path-effect
       effect="powerclip"
       message=""
       id="path-effect22111-4-5-89-1"
       is_visible="true"
       lpeversion="1"
       inverse="true"
       flatten="false"
       hide_clip="false" /><clipPath
       clipPathUnits="userSpaceOnUse"
       id="clipath_lpe_path-effect22111-4-5-0"><path
         style="display:none;fill:#ccff00;fill-opacity:1;stroke:none;stroke-width:10.7155;stroke-linecap:round;stroke-linejoin:round;stroke-miterlimit:6.6;stroke-opacity:1"
         id="path1-62"
         inkscape:transform-center-x="8.1911751"
         inkscape:transform-center-y="18.33957"
         transform="matrix(0.99996798,-0.00800234,0.00450492,0.99998985,0,0)"
         sodipodi:type="arc"
         sodipodi:cx="46.422909"
         sodipodi:cy="28.303036"
         sodipodi:rx="13.587809"
         sodipodi:ry="34.978111"
         sodipodi:start="0"
         sodipodi:end="3.1467592"
         sodipodi:arc-type="arc"
         d="M 60.010717,28.303036 A 13.587809,34.978111 0 0 1 53.196537,58.625043 13.587809,34.978111 0 0 1 39.588514,58.53455 13.587809,34.978111 0 0 1 32.835282,28.122321"
         sodipodi:open="true" /><path
         id="lpe_path-effect22111-4-5-61"
         style="fill:#ccff00;fill-opacity:1;stroke:none;stroke-width:10.7155;stroke-linecap:round;stroke-linejoin:round;stroke-miterlimit:6.6;stroke-opacity:1"
         class="powerclip"
         d="M 2.8531362,34.344676 H 42.355983 V 110.00568 H 2.8531362 Z M 32.835282,28.122321 a 13.587809,34.978111 0 0 0 6.753232,30.412229 13.587809,34.978111 0 0 0 13.608023,0.09049 13.587809,34.978111 0 0 0 6.81418,-30.322007" /></clipPath><inkscape:path-effect
       effect="powerclip"
       message=""
       id="path-effect22111-4-5-87"
       is_visible="true"
       lpeversion="1"
       inverse="true"
       flatten="false"
       hide_clip="false" /><clipPath
       clipPathUnits="userSpaceOnUse"
       id="clipath_lpe_path-effect22111-4-5-89-1"><path
         style="display:block;fill:#ccff00;fill-opacity:1;stroke:none;stroke-width:10.7155;stroke-linecap:round;stroke-linejoin:round;stroke-miterlimit:6.6;stroke-opacity:1"
         id="path7"
         inkscape:transform-center-x="8.1911751"
         inkscape:transform-center-y="18.33957"
         transform="matrix(0.99996798,-0.00800234,0.00450492,0.99998985,0,0)"
         sodipodi:type="arc"
         sodipodi:cx="46.422909"
         sodipodi:cy="28.303036"
         sodipodi:rx="13.587809"
         sodipodi:ry="34.978111"
         sodipodi:start="0"
         sodipodi:end="3.1467592"
         sodipodi:arc-type="arc"
         sodipodi:open="true" /></clipPath><clipPath
       clipPathUnits="userSpaceOnUse"
       id="clipath_lpe_path-effect22111-4-5-87"><path
         style="display:block;fill:#ccff00;fill-opacity:1;stroke:none;stroke-width:10.7155;stroke-linecap:round;stroke-linejoin:round;stroke-miterlimit:6.6;stroke-opacity:1"
         id="path12"
         inkscape:transform-center-x="8.1911751"
         inkscape:transform-center-y="18.33957"
         transform="matrix(0.99996798,-0.00800234,0.00450492,0.99998985,0,0)"
         sodipodi:type="arc"
         sodipodi:cx="46.422909"
         sodipodi:cy="28.303036"
         sodipodi:rx="13.587809"
         sodipodi:ry="34.978111"
         sodipodi:start="0"
         sodipodi:end="3.1467592"
         sodipodi:arc-type="arc"
         sodipodi:open="true" /></clipPath><clipPath
       clipPathUnits="userSpaceOnUse"
       id="clipath_lpe_path-effect22111-4-5-89-2"><path
         style="display:none;fill:#ccff00;fill-opacity:1;stroke:none;stroke-width:10.7155;stroke-linecap:round;stroke-linejoin:round;stroke-miterlimit:6.6;stroke-opacity:1"
         id="path11-28"
         inkscape:transform-center-x="8.1911751"
         inkscape:transform-center-y="18.33957"
         transform="matrix(0.99996798,-0.00800234,0.00450492,0.99998985,0,0)"
         sodipodi:type="arc"
         sodipodi:cx="46.422909"
         sodipodi:cy="28.303036"
         sodipodi:rx="13.587809"
         sodipodi:ry="34.978111"
         sodipodi:start="0"
         sodipodi:end="3.1467592"
         sodipodi:arc-type="arc"
         d="M 60.010717,28.303036 A 13.587809,34.978111 0 0 1 53.196537,58.625043 13.587809,34.978111 0 0 1 39.588514,58.53455 13.587809,34.978111 0 0 1 32.835282,28.122321"
         sodipodi:open="true" /><path
         id="lpe_path-effect22111-4-5-89-97"
         style="fill:#ccff00;fill-opacity:1;stroke:none;stroke-width:10.7155;stroke-linecap:round;stroke-linejoin:round;stroke-miterlimit:6.6;stroke-opacity:1"
         class="powerclip"
         d="M 2.8531362,34.344676 H 42.355983 V 110.00568 H 2.8531362 Z M 32.835282,28.122321 a 13.587809,34.978111 0 0 0 6.753232,30.412229 13.587809,34.978111 0 0 0 13.608023,0.09049 13.587809,34.978111 0 0 0 6.81418,-30.322007" /></clipPath><inkscape:path-effect
       effect="powerclip"
       message=""
       id="path-effect22111-4-5-89-3"
       is_visible="true"
       lpeversion="1"
       inverse="true"
       flatten="false"
       hide_clip="false" /><clipPath
       clipPathUnits="userSpaceOnUse"
       id="clipath_lpe_path-effect22111-4-5-4"><path
         style="display:block;fill:#ccff00;fill-opacity:1;stroke:none;stroke-width:10.7155;stroke-linecap:round;stroke-linejoin:round;stroke-miterlimit:6.6;stroke-opacity:1"
         id="path1-7"
         inkscape:transform-center-x="8.1911751"
         inkscape:transform-center-y="18.33957"
         transform="matrix(0.99996798,-0.00800234,0.00450492,0.99998985,0,0)"
         sodipodi:type="arc"
         sodipodi:cx="46.422909"
         sodipodi:cy="28.303036"
         sodipodi:rx="13.587809"
         sodipodi:ry="34.978111"
         sodipodi:start="0"
         sodipodi:end="3.1467592"
         sodipodi:arc-type="arc"
         sodipodi:open="true" /><path
         id="lpe_path-effect22111-4-5-8"
         style="fill:#ccff00;fill-opacity:1;stroke:none;stroke-width:10.7155;stroke-linecap:round;stroke-linejoin:round;stroke-miterlimit:6.6;stroke-opacity:1"
         class="powerclip"
         d="M 2.8531362,34.344676 H 42.355983 V 110.00568 H 2.8531362 Z M 32.835282,28.122321 a 13.587809,34.978111 0 0 0 6.753232,30.412229 13.587809,34.978111 0 0 0 13.608023,0.09049 13.587809,34.978111 0 0 0 6.81418,-30.322007" /></clipPath><inkscape:path-effect
       effect="powerclip"
       message=""
       id="path-effect22111-4-5-4"
       is_visible="true"
       lpeversion="1"
       inverse="true"
       flatten="false"
       hide_clip="false" /><clipPath
       clipPathUnits="userSpaceOnUse"
       id="clipath_lpe_path-effect22111-4-5-89-3"><path
         style="display:block;fill:#ccff00;fill-opacity:1;stroke:none;stroke-width:10.7155;stroke-linecap:round;stroke-linejoin:round;stroke-miterlimit:6.6;stroke-opacity:1"
         id="path13"
         inkscape:transform-center-x="8.1911751"
         inkscape:transform-center-y="18.33957"
         transform="matrix(0.99996798,-0.00800234,0.00450492,0.99998985,0,0)"
         sodipodi:type="arc"
         sodipodi:cx="46.422909"
         sodipodi:cy="28.303036"
         sodipodi:rx="13.587809"
         sodipodi:ry="34.978111"
         sodipodi:start="0"
         sodipodi:end="3.1467592"
         sodipodi:arc-type="arc"
         sodipodi:open="true" /></clipPath><clipPath
       clipPathUnits="userSpaceOnUse"
       id="clipath_lpe_path-effect22111-4-5-87-2"><path
         style="display:none;fill:#ccff00;fill-opacity:1;stroke:none;stroke-width:10.7155;stroke-linecap:round;stroke-linejoin:round;stroke-miterlimit:6.6;stroke-opacity:1"
         id="path12-0"
         inkscape:transform-center-x="8.1911751"
         inkscape:transform-center-y="18.33957"
         transform="matrix(0.99996798,-0.00800234,0.00450492,0.99998985,0,0)"
         sodipodi:type="arc"
         sodipodi:cx="46.422909"
         sodipodi:cy="28.303036"
         sodipodi:rx="13.587809"
         sodipodi:ry="34.978111"
         sodipodi:start="0"
         sodipodi:end="3.1467592"
         sodipodi:arc-type="arc"
         d="M 60.010717,28.303036 A 13.587809,34.978111 0 0 1 53.196537,58.625043 13.587809,34.978111 0 0 1 39.588514,58.53455 13.587809,34.978111 0 0 1 32.835282,28.122321"
         sodipodi:open="true" /><path
         id="lpe_path-effect22111-4-5-87-6"
         style="fill:#ccff00;fill-opacity:1;stroke:none;stroke-width:10.7155;stroke-linecap:round;stroke-linejoin:round;stroke-miterlimit:6.6;stroke-opacity:1"
         class="powerclip"
         d="M 2.8531362,34.344676 H 42.355983 V 110.00568 H 2.8531362 Z M 32.835282,28.122321 a 13.587809,34.978111 0 0 0 6.753232,30.412229 13.587809,34.978111 0 0 0 13.608023,0.09049 13.587809,34.978111 0 0 0 6.81418,-30.322007" /></clipPath><inkscape:path-effect
       effect="powerclip"
       message=""
       id="path-effect22111-4-5-87-1"
       is_visible="true"
       lpeversion="1"
       inverse="true"
       flatten="false"
       hide_clip="false" /><clipPath
       clipPathUnits="userSpaceOnUse"
       id="clipath_lpe_path-effect22111-4-5-89-1-6"><path
         style="display:none;fill:#ccff00;fill-opacity:1;stroke:none;stroke-width:10.7155;stroke-linecap:round;stroke-linejoin:round;stroke-miterlimit:6.6;stroke-opacity:1"
         id="path7-9"
         inkscape:transform-center-x="8.1911751"
         inkscape:transform-center-y="18.33957"
         transform="matrix(0.99996798,-0.00800234,0.00450492,0.99998985,0,0)"
         sodipodi:type="arc"
         sodipodi:cx="46.422909"
         sodipodi:cy="28.303036"
         sodipodi:rx="13.587809"
         sodipodi:ry="34.978111"
         sodipodi:start="0"
         sodipodi:end="3.1467592"
         sodipodi:arc-type="arc"
         d="M 60.010717,28.303036 A 13.587809,34.978111 0 0 1 53.196537,58.625043 13.587809,34.978111 0 0 1 39.588514,58.53455 13.587809,34.978111 0 0 1 32.835282,28.122321"
         sodipodi:open="true" /><path
         id="lpe_path-effect22111-4-5-89-1-3"
         style="fill:#ccff00;fill-opacity:1;stroke:none;stroke-width:10.7155;stroke-linecap:round;stroke-linejoin:round;stroke-miterlimit:6.6;stroke-opacity:1"
         class="powerclip"
         d="M 2.8531362,34.344676 H 42.355983 V 110.00568 H 2.8531362 Z M 32.835282,28.122321 a 13.587809,34.978111 0 0 0 6.753232,30.412229 13.587809,34.978111 0 0 0 13.608023,0.09049 13.587809,34.978111 0 0 0 6.81418,-30.322007" /></clipPath><inkscape:path-effect
       effect="powerclip"
       message=""
       id="path-effect22111-4-5-89-1-7"
       is_visible="true"
       lpeversion="1"
       inverse="true"
       flatten="false"
       hide_clip="false" /><clipPath
       clipPathUnits="userSpaceOnUse"
       id="clipath_lpe_path-effect22111-4-5-87-1"><path
         style="display:block;fill:#ccff00;fill-opacity:1;stroke:none;stroke-width:10.7155;stroke-linecap:round;stroke-linejoin:round;stroke-miterlimit:6.6;stroke-opacity:1"
         id="path15"
         inkscape:transform-center-x="8.1911751"
         inkscape:transform-center-y="18.33957"
         transform="matrix(0.99996798,-0.00800234,0.00450492,0.99998985,0,0)"
         sodipodi:type="arc"
         sodipodi:cx="46.422909"
         sodipodi:cy="28.303036"
         sodipodi:rx="13.587809"
         sodipodi:ry="34.978111"
         sodipodi:start="0"
         sodipodi:end="3.1467592"
         sodipodi:arc-type="arc"
         sodipodi:open="true" /></clipPath><clipPath
       clipPathUnits="userSpaceOnUse"
       id="clipath_lpe_path-effect22111-4-5-89-1-7"><path
         style="display:block;fill:#ccff00;fill-opacity:1;stroke:none;stroke-width:10.7155;stroke-linecap:round;stroke-linejoin:round;stroke-miterlimit:6.6;stroke-opacity:1"
         id="path16"
         inkscape:transform-center-x="8.1911751"
         inkscape:transform-center-y="18.33957"
         transform="matrix(0.99996798,-0.00800234,0.00450492,0.99998985,0,0)"
         sodipodi:type="arc"
         sodipodi:cx="46.422909"
         sodipodi:cy="28.303036"
         sodipodi:rx="13.587809"
         sodipodi:ry="34.978111"
         sodipodi:start="0"
         sodipodi:end="3.1467592"
         sodipodi:arc-type="arc"
         sodipodi:open="true" /></clipPath></defs><g
     inkscape:label="Capa 1"
     inkscape:groupmode="layer"
     id="layer1"><path
       style="fill:#000000"
       id="path22011" /><g
       id="g1"><path
         style="fill:#f5f5f5;fill-opacity:1;stroke-width:0.976324"
         d="M 8.0914646,104.88546 C 7.9950038,104.789 7.7341319,97.388315 7.9160387,88.443668 8.1998832,74.486579 8.1229004,63.190754 15.567223,51.99232 17.95909,48.508294 23.476101,43.772719 28.06492,41.26481 c 4.67504,-2.555032 4.611843,-2.554641 5.143734,-0.03191 0.07275,2.490961 -0.450031,2.08275 -2.729588,3.232571 -16.860112,8.384656 -18.65483,25.397897 -18.620387,41.925432 l -0.09509,14.788757 h 5.438308 5.438319 l 0.002,-12.980524 c 0.0029,-16.810442 0.467893,-20.255137 3.388751,-25.095616 2.871818,-4.759205 9.944891,-10.061116 10.697211,-8.485856 0.196535,0.928478 0.413469,1.852449 0.627805,2.77693 l -0.550471,0.37963 c -3.746945,2.584017 -6.135705,4.922155 -8.132238,8.948543 -1.661771,3.351263 -1.775404,8.97937 -1.883391,21.411789 l -0.145843,16.790734 -9.188642,0.0678 c -5.053744,0.0373 -9.2675769,-0.0111 -9.3640572,-0.10763 z"
         id="path22013-6-2-3"
         sodipodi:nodetypes="cssssccccccsccssscscc"
         clip-path="url(#clipath_lpe_path-effect22111-4-5-89)"
         inkscape:path-effect="#path-effect22111-4-5-89"
         inkscape:original-d="M 8.0914646,104.88546 C 7.9950038,104.789 7.7341319,97.388315 7.9160387,88.443668 8.1998832,74.486579 8.1229004,63.190754 15.567223,51.99232 17.95909,48.508294 23.476101,43.772719 28.06492,41.26481 c 4.67504,-2.555032 4.611843,-2.554641 5.143734,-0.03191 0.07275,2.490961 -0.450031,2.08275 -2.729588,3.232571 -16.860112,8.384656 -18.65483,25.397897 -18.620387,41.925432 l -0.09509,14.788757 h 5.438308 5.438319 l 0.002,-12.980524 c 0.0029,-16.810442 0.467893,-20.255137 3.388751,-25.095616 2.871818,-4.759205 9.944891,-10.061116 10.697211,-8.485856 0.196535,0.928478 0.413469,1.852449 0.627805,2.77693 l -0.550471,0.37963 c -3.746945,2.584017 -6.135705,4.922155 -8.132238,8.948543 -1.661771,3.351263 -1.775404,8.97937 -1.883391,21.411789 l -0.145843,16.790734 -9.188642,0.0678 c -5.053744,0.0373 -9.2675769,-0.0111 -9.3640572,-0.10763 z"
         transform="matrix(1.9005743,0,0,1.9005743,30.372437,-9.7144426)" /><path
         style="fill:#b8860b;fill-opacity:1;stroke:#b8860b;stroke-width:4.86986;stroke-linecap:round;stroke-linejoin:bevel;stroke-miterlimit:6.6;stroke-dasharray:none;stroke-opacity:1;marker-start:url(#marker10);marker-mid:url(#Dot);marker-end:url(#marker9);paint-order:stroke fill markers"
         d="m 107.88198,98.524805 c 7.6683,-3.453437 15.3366,-3.226264 23.0049,0 l 11.79726,-44.027992 c -14.87979,-5.318124 -31.16041,-4.799532 -48.468441,0 z"
         id="path8"
         sodipodi:nodetypes="ccccc" /><path
         style="fill:#f5f5f5;fill-opacity:1;stroke-width:0.976324"
         d="M 8.0914646,104.88546 C 7.9950038,104.789 7.7341319,97.388315 7.9160387,88.443668 8.1998832,74.486579 8.1229004,63.190754 15.567223,51.99232 17.95909,48.508294 23.476101,43.772719 28.06492,41.26481 c 4.67504,-2.555032 4.611843,-2.554641 5.143734,-0.03191 0.07275,2.490961 -0.450031,2.08275 -2.729588,3.232571 -16.860112,8.384656 -18.65483,25.397897 -18.620387,41.925432 l -0.09509,14.788757 h 5.438308 5.438319 l 0.002,-12.980524 c 0.0029,-16.810442 0.467893,-20.255137 3.388751,-25.095616 2.871818,-4.759205 9.944891,-10.061116 10.697211,-8.485856 0.196535,0.928478 0.413469,1.852449 0.627805,2.77693 l -0.550471,0.37963 c -3.746945,2.584017 -6.135705,4.922155 -8.132238,8.948543 -1.661771,3.351263 -1.775404,8.97937 -1.883391,21.411789 l -0.145843,16.790734 -9.188642,0.0678 c -5.053744,0.0373 -9.2675769,-0.0111 -9.3640572,-0.10763 z"
         id="path22013-6-2"
         sodipodi:nodetypes="cssssccccccsccssscscc"
         clip-path="url(#clipath_lpe_path-effect22111-4-5)"
         inkscape:path-effect="#path-effect22111-4-5"
         inkscape:original-d="M 8.0914646,104.88546 C 7.9950038,104.789 7.7341319,97.388315 7.9160387,88.443668 8.1998832,74.486579 8.1229004,63.190754 15.567223,51.99232 17.95909,48.508294 23.476101,43.772719 28.06492,41.26481 c 4.67504,-2.555032 4.611843,-2.554641 5.143734,-0.03191 0.07275,2.490961 -0.450031,2.08275 -2.729588,3.232571 -16.860112,8.384656 -18.65483,25.397897 -18.620387,41.925432 l -0.09509,14.788757 h 5.438308 5.438319 l 0.002,-12.980524 c 0.0029,-16.810442 0.467893,-20.255137 3.388751,-25.095616 2.871818,-4.759205 9.944891,-10.061116 10.697211,-8.485856 0.196535,0.928478 0.413469,1.852449 0.627805,2.77693 l -0.550471,0.37963 c -3.746945,2.584017 -6.135705,4.922155 -8.132238,8.948543 -1.661771,3.351263 -1.775404,8.97937 -1.883391,21.411789 l -0.145843,16.790734 -9.188642,0.0678 c -5.053744,0.0373 -9.2675769,-0.0111 -9.3640572,-0.10763 z"
         transform="matrix(-1.9005743,0,0,1.9005743,207.75256,-9.7144426)" /></g><path
       style="fill:#5a5a5a;fill-opacity:1;stroke-width:0.976324"
       d="M 8.0914646,104.88546 C 7.9950038,104.789 7.7341319,97.388315 7.9160387,88.443668 8.1998832,74.486579 8.1229004,63.190754 15.567223,51.99232 17.95909,48.508294 23.476101,43.772719 28.06492,41.26481 c 4.67504,-2.555032 4.611843,-2.554641 5.143734,-0.03191 0.07275,2.490961 -0.450031,2.08275 -2.729588,3.232571 -16.860112,8.384656 -18.65483,25.397897 -18.620387,41.925432 l -0.09509,14.788757 h 5.438308 5.438319 l 0.002,-12.980524 c 0.0029,-16.810442 0.467893,-20.255137 3.388751,-25.095616 2.871818,-4.759205 9.944891,-10.061116 10.697211,-8.485856 0.196535,0.928478 0.413469,1.852449 0.627805,2.77693 l -0.550471,0.37963 c -3.746945,2.584017 -6.135705,4.922155 -8.132238,8.948543 -1.661771,3.351263 -1.775404,8.97937 -1.883391,21.411789 l -0.145843,16.790734 -9.188642,0.0678 c -5.053744,0.0373 -9.2675769,-0.0111 -9.3640572,-0.10763 z"
       id="path22013-6-2-9"
       sodipodi:nodetypes="cssssccccccsccssscscc"
       clip-path="url(#clipath_lpe_path-effect22111-4-5-6)"
       transform="matrix(1.9005743,0,0,1.9005743,30.985012,-10.261607)" /></g></svg>
